<svg id="Layer_1" data-name="Layer 1" xmlns="http://www.w3.org/2000/svg" xmlns:xlink="http://www.w3.org/1999/xlink" viewBox="0 0 32 32"><defs><style>.cls-1{fill:none;}.cls-2{clip-path:url(#clip-path);}.cls-3{fill:#fff;}</style><clipPath id="clip-path"><rect class="cls-1" x="5.73" y="4" width="20.55" height="24"/></clipPath></defs><title>footer_paypal</title><rect class="cls-1" width="32" height="32"/><g id="footer-paypal"><g class="cls-2"><g id="Grupo_35" data-name="Grupo 35"><path id="Trazado_57" data-name="Trazado 57" class="cls-3" d="M8.58,25.34h-2c-.63,0-.91-.34-.81-1q.9-5.65,1.81-11.33L8.78,5.3c.15-1,.49-1.3,1.46-1.3h7.87a9.46,9.46,0,0,1,3.12.52A4.42,4.42,0,0,1,24.34,9a9.56,9.56,0,0,1-1.5,5c-1.51,2.34-3.82,3.21-6.47,3.37-.9.06-1.8,0-2.71,0-1.07,0-1.36.27-1.52,1.35-.31,2-.65,4-.94,6-.07.47-.25.63-.72.6-.63,0-1.27,0-1.91,0"/><path id="Trazado_58" data-name="Trazado 58" class="cls-3" d="M13.77,28c-.44,0-.89,0-1.33,0s-.52-.15-.45-.53c.3-1.83.59-3.67.88-5.5.15-.95.32-1.89.44-2.83.06-.47.28-.58.7-.57a21.49,21.49,0,0,0,3.76-.18,8.62,8.62,0,0,0,7.36-6.66c.06-.19,0-.52.23-.55s.32.29.42.48a4.36,4.36,0,0,1,.47,2.53,8.65,8.65,0,0,1-1.63,4.64,6.75,6.75,0,0,1-4.72,2.46,14.24,14.24,0,0,1-1.85.1c-.71,0-1,.24-1.11.94-.24,1.4-.45,2.8-.67,4.19a5.1,5.1,0,0,1-.13.68,1,1,0,0,1-1,.79H13.76"/></g></g></g></svg>