<svg id="Layer_1" data-name="Layer 1" xmlns="http://www.w3.org/2000/svg" xmlns:xlink="http://www.w3.org/1999/xlink" viewBox="0 0 32 32"><defs><style>.cls-1{fill:none;}.cls-2{clip-path:url(#clip-path);}.cls-3{fill:#fff;}</style><clipPath id="clip-path"><rect class="cls-1" x="6.1" y="3" width="19.8" height="26"/></clipPath></defs><title>footer_bizum</title><rect class="cls-1" width="32" height="32"/><g id="footer-bizum"><g class="cls-2"><g id="Grupo_37" data-name="Grupo 37"><path id="Trazado_59" data-name="Trazado 59" class="cls-3" d="M8.9,22.71a2,2,0,0,1,.42-1.18Q14.26,14.76,19.18,8a2.14,2.14,0,0,1,3.58,2.36,1.13,1.13,0,0,1-.1.13q-4.9,6.8-9.85,13.57a2.14,2.14,0,0,1-2.51.79,2.11,2.11,0,0,1-1.39-2.12"/><path id="Trazado_60" data-name="Trazado 60" class="cls-3" d="M17.44,27a2,2,0,0,1-1.87-1,2,2,0,0,1,0-2.21q1.28-1.87,2.66-3.68a2.13,2.13,0,0,1,2.93-.34,2.09,2.09,0,0,1,.52,2.85C20.84,23.81,19.93,25,19,26.23a1.83,1.83,0,0,1-1.58.73"/><path id="Trazado_61" data-name="Trazado 61" class="cls-3" d="M16.72,7.21a2,2,0,0,1-.39,1.21c-.8,1.11-1.6,2.22-2.42,3.32a2.14,2.14,0,1,1-3.56-2.39l.09-.13C11.25,8.09,12.06,7,12.9,5.85a2.16,2.16,0,0,1,2.42-.73,2.12,2.12,0,0,1,1.4,2.09"/><path id="Trazado_62" data-name="Trazado 62" class="cls-3" d="M8.22,7.28A2.09,2.09,0,0,1,6.1,5.21v-.1A2.11,2.11,0,0,1,8.22,3h0a2.14,2.14,0,0,1,0,4.28h0"/><path id="Trazado_63" data-name="Trazado 63" class="cls-3" d="M21.65,26.85a2.1,2.1,0,0,1,2.07-2.14h.12A2.15,2.15,0,0,1,23.7,29a2.1,2.1,0,0,1-2.05-2.15h0"/></g></g></g></svg>