<svg id="Layer_1" data-name="Layer 1" xmlns="http://www.w3.org/2000/svg" xmlns:xlink="http://www.w3.org/1999/xlink" viewBox="0 0 32 32"><defs><style>.cls-1{fill:none;}.cls-2{clip-path:url(#clip-path);}.cls-3{fill:#fff;}</style><clipPath id="clip-path"><rect class="cls-1" x="4" y="3.99" width="24" height="24.02"/></clipPath></defs><title>footer_telegram</title><rect class="cls-1" width="32" height="32"/><g id="footer-telegram"><g class="cls-2"><g id="Grupo_21" data-name="Grupo 21"><path id="Trazado_26" data-name="Trazado 26" class="cls-3" d="M23.74,8.68,22.3,9.92l-1.38,1.2L19.2,12.6l-1.77,1.53L15.51,15.8l-1.89,1.64L12,18.85,10.31,20.3c-.13.11-.25.21-.37.33a.17.17,0,0,1-.2,0L8,20l-2.46-1-1-.41A.81.81,0,0,1,4,17.79a.85.85,0,0,1,.46-.86c.72-.4,1.43-.83,2.14-1.24L8.68,14.5l2.45-1.42,3.31-1.9,3-1.75,2.77-1.6,2.27-1.32,3.07-1.77,1.08-.62a.94.94,0,0,1,1.15.15.83.83,0,0,1,.21.52,8.14,8.14,0,0,1-.17,1.29q-.46,2.81-.94,5.61c-.23,1.42-.48,2.84-.71,4.26s-.51,3-.76,4.56c-.17,1.07-.35,2.13-.53,3.2-.09.59-.21,1.19-.29,1.79a.91.91,0,0,1-1,.79,1,1,0,0,1-.28-.08c-1.07-.47-2.16-.89-3.24-1.33l-2.52-1a.24.24,0,0,0-.31.07h0c-.72.89-1.44,1.76-2.17,2.64-.31.39-.63.76-.94,1.15a.85.85,0,0,1-1,.25.82.82,0,0,1-.56-.8V22.6a.46.46,0,0,1,.11-.29L15.4,19l2.36-2.9c.8-1,1.61-2,2.41-3L22,10.87,23.69,8.8l.08-.1,0,0"/></g></g></g></svg>