<svg id="Layer_1" data-name="Layer 1" xmlns="http://www.w3.org/2000/svg" xmlns:xlink="http://www.w3.org/1999/xlink" viewBox="0 0 32 32"><defs><style>.cls-1{fill:none;}.cls-2{clip-path:url(#clip-path);}.cls-3{fill:#fff;}</style><clipPath id="clip-path"><rect class="cls-1" x="1.22" y="6" width="29.57" height="20"/></clipPath></defs><title>footer_pointscard</title><rect class="cls-1" width="32" height="32"/><g class="cls-2"><g id="Grupo_27" data-name="Grupo 27"><path id="Trazado_32" data-name="Trazado 32" class="cls-3" d="M28.06,7.64a1.08,1.08,0,0,1,1.08,1.08V23.28a1.08,1.08,0,0,1-1.08,1.08H3.94a1.08,1.08,0,0,1-1.08-1.08V8.72A1.08,1.08,0,0,1,3.94,7.64Zm0-1.64H3.94A2.72,2.72,0,0,0,1.22,8.72V23.28A2.72,2.72,0,0,0,3.94,26H28.06a2.72,2.72,0,0,0,2.72-2.72V8.72A2.72,2.72,0,0,0,28.06,6"/><path id="Trazado_33" data-name="Trazado 33" class="cls-3" d="M13.92,20.17c0,.38.23.45.34.45a.33.33,0,0,0,.33-.32h0c0-.17-.14-.23-.65-.44-.24-.1-.82-.33-.82-.95a1.08,1.08,0,0,1,1.14-1h0a1,1,0,0,1,1.11.94v.09h-.84c0-.11,0-.32-.3-.32a.27.27,0,0,0-.29.26c0,.15.09.19.68.46s.78.57.78.95a1,1,0,0,1-.95,1.07.74.74,0,0,1-.21,0,1,1,0,0,1-1.19-.89.82.82,0,0,1,0-.27Z"/><path id="Trazado_34" data-name="Trazado 34" class="cls-3" d="M15.57,20a1.35,1.35,0,1,1,1.36,1.33h0a1.31,1.31,0,0,1-1.34-1.26Zm.75,0A.6.6,0,1,0,17.51,20a.6.6,0,0,0-.6-.56.61.61,0,0,0-.59.62Z"/><path id="Trazado_35" data-name="Trazado 35" class="cls-3" d="M21.08,20.32A1.34,1.34,0,0,1,18.44,20a1.34,1.34,0,0,1,2.64-.27h-.76a.55.55,0,0,0-.53-.36.52.52,0,0,0-.43.18.68.68,0,0,0-.17.45.61.61,0,0,0,.55.64h0a.59.59,0,0,0,.54-.34Z"/><path id="Trazado_36" data-name="Trazado 36" class="cls-3" d="M21.38,18h.74v.56h-.74Zm0,.82h.74v2.49h-.74Z"/><path id="Trazado_37" data-name="Trazado 37" class="cls-3" d="M22.43,20a1.34,1.34,0,1,1,1.36,1.33h0a1.31,1.31,0,0,1-1.34-1.26Zm.75,0A.6.6,0,1,0,24.37,20a.6.6,0,0,0-1.19.06Z"/><path id="Trazado_38" data-name="Trazado 38" class="cls-3" d="M26.48,19.48c0-.06,0-.19-.23-.19s-.21.1-.21.16.18.19.38.25c.42.12.87.24.87.78a.92.92,0,0,1-.95.88h-.07a.93.93,0,0,1-1-.83H26a.26.26,0,0,0,.28.23c.13,0,.26-.07.26-.19s-.18-.19-.65-.38a.72.72,0,0,1-.6-.65.88.88,0,0,1,.93-.84h0a.86.86,0,0,1,.95.78h-.73Z"/><path id="Trazado_39" data-name="Trazado 39" class="cls-3" d="M16.29,15.68s.17.33-.09.44-.94.3-1,.31l-.6-1.57h-2L12,16.43l-.91-.29s-.31-.08-.14-.51c0-.1.2-.46.4-.93l.7-1.66.69-1.62.36-.83a.3.3,0,0,1,.33-.21h.6Zm-3.24-1.89h1.2l-.6-1.54-.6,1.54"/><path id="Trazado_40" data-name="Trazado 40" class="cls-3" d="M8.07,10.33a5.93,5.93,0,0,1,2.24.53v.75s0,.31-.28.31l-.17,0A4.46,4.46,0,0,0,8,11.42H8a2.18,2.18,0,0,0-1.49.6A2,2,0,0,0,6,13.31,2,2,0,0,0,6.73,15a2.63,2.63,0,0,0,1.39.39,5.16,5.16,0,0,0,1.1-.18V14h-1a.3.3,0,0,1-.31-.28v-.79h2.25s.3,0,.3.37v2.63a5.38,5.38,0,0,1-2.37.54,3.4,3.4,0,0,1-2.56-1,2.85,2.85,0,0,1-.81-2.07,3.12,3.12,0,0,1,1.12-2.31,3.53,3.53,0,0,1,2.26-.74"/><path id="Trazado_41" data-name="Trazado 41" class="cls-3" d="M22.56,10.38v5.37a.36.36,0,0,1-.26.38l-1,.3V12.86l-1.14,1.71a.61.61,0,0,1-.52.29.68.68,0,0,1-.55-.29L18,12.86v3.57l-1-.3a.36.36,0,0,1-.26-.38V10.68a.32.32,0,0,1,.32-.3h.81l1.77,2.71,1.71-2.61c.05-.08.09-.1.27-.1Z"/><path id="Trazado_42" data-name="Trazado 42" class="cls-3" d="M27.22,10.38v.75a.31.31,0,0,1-.3.33H24.35v1.35h2.79v.74a.33.33,0,0,1-.33.35H24.36v1.42h2.93v.81c0,.28-.31.3-.33.3H23.51c-.41,0-.38-.32-.37-.33V10.72a.3.3,0,0,1,.27-.34h3.81Z"/></g></g></svg>