<svg id="Layer_1" data-name="Layer 1" xmlns="http://www.w3.org/2000/svg" xmlns:xlink="http://www.w3.org/1999/xlink" viewBox="0 0 32 32"><defs><style>.cls-1{fill:none;}.cls-2{clip-path:url(#clip-path);}.cls-3{fill:#fff;}</style><clipPath id="clip-path"><rect class="cls-1" x="5.93" y="3.5" width="20.14" height="25"/></clipPath></defs><title>footer_twittersac</title><rect class="cls-1" width="32" height="32"/><g id="footer-twittersac"><g class="cls-2"><g id="Grupo_16" data-name="Grupo 16"><path id="Trazado_12" data-name="Trazado 12" class="cls-3" d="M5.93,26.88a12.43,12.43,0,0,1,1.44-3.45,7.12,7.12,0,0,1,5.17-3.07,1,1,0,0,1,.71.18,4.5,4.5,0,0,0,2.12.84.84.84,0,0,1,.4.17A1.55,1.55,0,0,0,18,21.3a1,1,0,0,0,.16-.24,1.6,1.6,0,0,1,1.38-.69,7.05,7.05,0,0,1,5.73,4.15A13.53,13.53,0,0,1,26,26.76a1.36,1.36,0,0,1-.88,1.67L25,28.5H7a1.56,1.56,0,0,1-1.06-1.15Z"/><path id="Trazado_13" data-name="Trazado 13" class="cls-3" d="M20.61,12.21a8.12,8.12,0,0,1-2.1,5.49l-.2.2c-.4.37-.4.37-.84.1a1.47,1.47,0,0,0-2,.48.75.75,0,0,0-.07.12c-.09.17-.17.2-.34.14a4.69,4.69,0,0,1-2.34-2,8.16,8.16,0,0,1-1.29-5.11A4.7,4.7,0,0,1,14,7.45a4.51,4.51,0,0,1,6.06,2,4.37,4.37,0,0,1,.39,1.1,6.3,6.3,0,0,1,.19,1.67"/><path id="Trazado_14" data-name="Trazado 14" class="cls-3" d="M16.06,3.5a6.87,6.87,0,0,1,6.88,5.75A2.12,2.12,0,0,1,23,10a1.32,1.32,0,0,0,.38,1,.33.33,0,0,0,.24.1,2.13,2.13,0,0,1,0,4.22,1.19,1.19,0,0,0-.6.77,4,4,0,0,1-.31,1.78,3.41,3.41,0,0,1-2.18,1.65c-.84.29-1.72.48-2.58.7a.56.56,0,0,0-.38.27.86.86,0,0,1-1.17.35l-.07,0a.9.9,0,0,1,.93-1.53.56.56,0,0,0,.5.07c.86-.23,1.73-.42,2.57-.69a2.15,2.15,0,0,0,1.75-2.21c0-.33.08-.64-.21-.9a.65.65,0,0,1-.14-.49V11.4a1,1,0,0,1,.22-.67.32.32,0,0,0,.06-.3A6,6,0,0,0,16.72,5.5,5.93,5.93,0,0,0,10,10.4c0,.09,0,.19,0,.26a2.22,2.22,0,0,1,.27,1.49c0,1,0,1.94,0,2.91a.88.88,0,0,1-.86.9.76.76,0,0,1-.36-.06.6.6,0,0,1-.27-.2c-.14-.32-.41-.37-.71-.46a2.12,2.12,0,0,1,.29-4.14A1.16,1.16,0,0,0,9,10.39a6.79,6.79,0,0,1,5.88-6.78,5.45,5.45,0,0,1,1.21-.11"/></g></g></g></svg>