<svg id="Layer_1" data-name="Layer 1" xmlns="http://www.w3.org/2000/svg" xmlns:xlink="http://www.w3.org/1999/xlink" viewBox="0 0 32 32"><defs><style>.cls-1{fill:none;}.cls-2{clip-path:url(#clip-path);}.cls-3{fill:#fff;}</style><clipPath id="clip-path"><rect class="cls-1" x="4.09" y="3.5" width="23.81" height="25"/></clipPath></defs><title>footer_gameplus</title><g class="cls-2"><g id="Grupo_23" data-name="Grupo 23"><path id="Trazado_27" data-name="Trazado 27" class="cls-3" d="M17.27,19.51H11.82v2a.75.75,0,0,0,.75.75h2.48v3a12,12,0,0,1-2.66.45,6,6,0,0,1-3.36-1,5.26,5.26,0,0,1-1.9-4.18,5.14,5.14,0,0,1,1.36-3.26,5.16,5.16,0,0,1,3.69-1.52,10.11,10.11,0,0,1,4.41,1.15c1,.41,1.11-.68,1.11-.68V14.26a14.36,14.36,0,0,0-5.43-1.33A8.33,8.33,0,0,0,6.79,14.8a8.05,8.05,0,0,0-2.7,5.86A7.48,7.48,0,0,0,6,25.93a8.24,8.24,0,0,0,6.22,2.57A13,13,0,0,0,18,27.11V20.46c0-1-.73-.95-.73-.95"/><path id="Trazado_28" data-name="Trazado 28" class="cls-3" d="M20.66,3.5a7.24,7.24,0,0,0-7.24,7.23,7.39,7.39,0,0,0,.12,1.33l.7-.13a6.54,6.54,0,1,1,7.62,5.24,6.66,6.66,0,0,1-2.09,0v-2h2.14V12h2.82a.36.36,0,0,0,.37-.37h0V9.49H21.91V6.3h-2.5V9.49H16.22V12h2.84v5.82l.29.06A7.24,7.24,0,1,0,22,3.62a6.88,6.88,0,0,0-1.29-.12"/></g></g><rect class="cls-1" width="32" height="32"/></svg>