<?xml version="1.0" encoding="UTF-8"?>
<svg id="Layer_1" data-name="Layer 1" xmlns="http://www.w3.org/2000/svg" viewBox="0 0 32 32">
  <defs>
    <style>
      .cls-1 {
        fill: #fff;
        stroke-width: 0px;
      }
    </style>
  </defs>
  <path class="cls-1" d="m28.39,27.12c-.69-.98-1.38-1.95-2.07-2.93-1.52-2.14-3.05-4.28-4.57-6.42-.82-1.15-1.62-2.31-2.45-3.45-.18-.25-.16-.37.04-.58.81-.84,1.61-1.69,2.4-2.55,1.11-1.19,2.22-2.37,3.32-3.56.87-.93,1.74-1.86,2.61-2.8.05-.06.17-.11.11-.21-.04-.07-.14-.04-.22-.04-.84,0-1.67,0-2.51,0-.25,0-.42.08-.58.26-1.53,1.65-3.06,3.29-4.59,4.93-.6.64-1.2,1.28-1.79,1.93-.34.38-.4.38-.69-.02-1.62-2.27-3.25-4.54-4.86-6.82-.15-.2-.31-.28-.56-.28-1.35,0-2.71,0-4.06,0h0c-1.34,0-2.69,0-4.03,0-.13,0-.31-.07-.38.07-.06.12.09.22.16.32.2.3.41.59.62.88,1.8,2.52,3.6,5.03,5.4,7.55.92,1.28,1.83,2.56,2.76,3.84.17.23.15.4-.05.58-.22.21-.43.42-.64.64-1.44,1.55-2.88,3.11-4.33,4.66-1.26,1.35-2.53,2.7-3.79,4.04-.05.05-.15.1-.11.19.03.09.14.06.21.06.85,0,1.69,0,2.54,0,.17,0,.3-.05.41-.17.8-.86,1.61-1.72,2.41-2.58,1.56-1.67,3.12-3.34,4.68-5.01.17-.18.29-.16.42.03.15.22.3.43.45.65,1.62,2.26,3.23,4.53,4.85,6.79.14.2.3.3.55.3,2.72,0,5.45,0,8.17,0,.09,0,.22.04.26-.07.03-.09-.05-.16-.1-.23Zm-4.24-2.02c-.04.09-.13.07-.2.07-.47,0-.93,0-1.4,0,0,0,0,0,0,0-.41,0-.82-.02-1.23,0-.28.01-.47-.08-.64-.31-1.21-1.7-2.44-3.4-3.66-5.1-1.53-2.13-3.06-4.25-4.58-6.38-1.09-1.52-2.18-3.04-3.27-4.55-.39-.54-.78-1.07-1.16-1.61-.06-.08-.16-.17-.1-.29.06-.12.19-.08.29-.08.86,0,1.71.01,2.57,0,.27,0,.45.1.61.32,2.49,3.48,4.98,6.96,7.47,10.44,1.64,2.29,3.29,4.58,4.93,6.87.1.14.2.29.3.43.04.06.09.11.06.18Z"/>
</svg>