<svg id="Layer_1" data-name="Layer 1" xmlns="http://www.w3.org/2000/svg" xmlns:xlink="http://www.w3.org/1999/xlink" viewBox="0 0 32 32"><defs><style>.cls-1{fill:none;}.cls-2{clip-path:url(#clip-path);}.cls-3{fill:#fff;}</style><clipPath id="clip-path"><rect class="cls-1" x="1.18" y="6" width="29.65" height="20"/></clipPath></defs><title>footer_debitcard</title><rect class="cls-1" width="32" height="32"/><g id="footer-tarjetabancaria"><g class="cls-2"><g id="Grupo_25" data-name="Grupo 25"><path id="Trazado_29" data-name="Trazado 29" class="cls-3" d="M30.82,8.82V23.18a3.71,3.71,0,0,1-4,2.82H5.18a3.71,3.71,0,0,1-4-2.82V8.82A3.71,3.71,0,0,1,5.18,6H26.82a3.7,3.7,0,0,1,4,2.82M16,13.94h-12c-.86,0-.86,0-.86.88v7c0,1.51.51,2,2,2H26.82c1.46,0,2-.52,2-2V14.75c0-.8,0-.81-.81-.81H16m0-3H28.21c.29,0,.54,0,.6-.38.26-1.6-.44-2.44-2-2.44H6.39c-.58,0-1.16,0-1.74,0A1.38,1.38,0,0,0,3.3,9.23a2.87,2.87,0,0,0-.11,1c0,.76,0,.78.77.78H16"/><path id="Trazado_30" data-name="Trazado 30" class="cls-3" d="M23.77,22.18c-2.09,0-2.58-.47-2.57-2.58a6.37,6.37,0,0,1,.08-1,1.71,1.71,0,0,1,1.66-1.49c.5,0,1,0,1.5,0a1.81,1.81,0,0,1,1.9,1.7V19c0,.4,0,.81,0,1.21a1.8,1.8,0,0,1-1.55,2,1.68,1.68,0,0,1-.5,0h-.53"/><path id="Trazado_31" data-name="Trazado 31" class="cls-3" d="M8.26,22.18c-.81,0-1.62,0-2.43,0-.56,0-.71-.31-.69-.77s-.14-1.08.58-1.1c1.69-.05,3.39,0,5.08,0,.5,0,.64.37.59,1.17,0,.45-.2.71-.71.7-.81,0-1.62,0-2.43,0"/></g></g></g></svg>