<svg id="Capa_1" data-name="Capa 1" xmlns="http://www.w3.org/2000/svg" viewBox="0 0 53.33 53.33"><defs><style>.cls-1{fill:#525556;isolation:isolate;opacity:0.5;}.cls-2{fill:none;}</style></defs><g id="Layer_2" data-name="Layer 2"><g id="Layer_1-2" data-name="Layer 1-2"><path class="cls-1" d="M26.54,9.1a26.86,26.86,0,0,0-25,17,26.87,26.87,0,0,0,50,0A26.87,26.87,0,0,0,26.54,9.1Zm0,28.41A11.37,11.37,0,1,1,37.9,26.13v0A11.38,11.38,0,0,1,26.54,37.51Zm0-18.18a6.82,6.82,0,1,0,6.82,6.82h0a6.8,6.8,0,0,0-6.8-6.82Z"/></g></g><rect class="cls-2" x="-0.33" y="-0.33" width="54" height="54"/></svg>