<svg id="Capa_1" data-name="Capa 1" xmlns="http://www.w3.org/2000/svg" viewBox="0 0 128 128"><defs><style>.cls-1{fill:#55595c;}</style></defs><title>icono-videojuegos</title><path class="cls-1" d="M72,74.25h40.5a28.25,28.25,0,1,0-40.5,0ZM92.25,47.41a7.15,7.15,0,1,1-7.15,7.15A7.15,7.15,0,0,1,92.25,47.41Z"/><path class="cls-1" d="M65,74.25a33.63,33.63,0,0,1,2-41.94V4.69H14.47l-.52.26A10.37,10.37,0,0,0,9.44,9.21a10.23,10.23,0,0,0-1.27,4.71A9.83,9.83,0,0,0,8.2,15V85.66c1,3.11,4.26,4.37,8.43,4.83V86.07A11.82,11.82,0,0,1,28.45,74.25ZM19.78,13.66a2.8,2.8,0,1,1-2.8,2.8A2.8,2.8,0,0,1,19.78,13.66Zm3.16,55.65H16.63V25.69h6.32Z"/><path class="cls-1" d="M105.36,81.16c0-2.08-.54-2.69-2.65-2.67-10.63.1-21.27,0-31.9,0H38.92c-2.75,0-2.77,0-2.77,2.72q0,19,0,38.05c0,2.76,0,2.79,2.73,2.79,21.27,0,42.53,0,63.8,0,2.06,0,2.7-.54,2.68-2.66Q105.21,100.33,105.36,81.16Zm-7,33.86c0,2.71,0,2.73-2.79,2.73H46c-2.81,0-2.83,0-2.83-2.67,0-9.89.06-19.77-.05-29.66,0-2.12.62-2.67,2.68-2.64,8.3.11,16.6,0,24.9,0s16.6,0,24.9,0c2.69,0,2.72,0,2.72,2.81Q98.36,100.33,98.34,115Z"/><path class="cls-1" d="M29.08,78.56a8.92,8.92,0,0,0-8.63,8.89q-.09,12.58,0,25.17a9.53,9.53,0,0,0,6.45,8.92,13.8,13.8,0,0,0,5,.5c2.79,0,2.81,0,2.82-2.73,0-6.25,0-12.49,0-18.74q0-8.39,0-16.78C34.7,78.17,34.7,78.17,29.08,78.56ZM28,85.65a3.72,3.72,0,0,1,3.74,3.65,3.67,3.67,0,0,1-3.49,3.87,3.72,3.72,0,0,1-4-3.62A3.78,3.78,0,0,1,28,85.65Zm1.77,12.5c-.15,1-.66,1.73-1.76,1.71a1.73,1.73,0,0,1,0-3.46C29,96.4,29.56,97.14,29.74,98.15ZM24.5,103.5a1.64,1.64,0,0,1-1.77-1.71,1.74,1.74,0,0,1,3.47,0A1.67,1.67,0,0,1,24.5,103.5Zm3.42,3.39a1.8,1.8,0,0,1-1.83-1.72,1.58,1.58,0,0,1,1.66-1.77A1.58,1.58,0,0,1,29.55,105C29.6,106.14,28.92,106.68,27.92,106.89Zm3.48-3.39a1.73,1.73,0,0,1-.14-3.46c1.09,0,1.65.63,1.85,1.66A1.75,1.75,0,0,1,31.4,103.5Z"/><path class="cls-1" d="M121,87.6A8.7,8.7,0,0,0,114.72,79c-1.83-.63-3.69-.33-5.53-.51-2-.2-2.51.69-2.48,2.57.09,6.33,0,12.66,0,19,0,5.87,0,11.73,0,17.6,0,4.84-.76,4.46,4.49,4.42a9.41,9.41,0,0,0,9.76-9.63C121.06,104.18,121,95.89,121,87.6Zm-7.49-3.52a1.69,1.69,0,0,1,1.67,1.82,1.63,1.63,0,0,1-1.79,1.63,1.59,1.59,0,0,1-1.66-1.77A1.63,1.63,0,0,1,113.52,84.08Zm-.18,7a1.61,1.61,0,0,1,1.84,1.58,1.73,1.73,0,1,1-3.45.24A1.59,1.59,0,0,1,113.34,91.09Zm-5.1-1.76a1.74,1.74,0,0,1,3.48-.05A1.63,1.63,0,0,1,110,91,1.58,1.58,0,0,1,108.24,89.34Zm5.2,16.48a3.86,3.86,0,0,1-.17-7.7,3.92,3.92,0,0,1,4,3.77A3.87,3.87,0,0,1,113.44,105.82Zm3.49-14.64a1.62,1.62,0,0,1-1.7-1.76A1.58,1.58,0,0,1,117,87.72a1.73,1.73,0,0,1,1.76,1.7C118.56,90.49,118,91.19,116.93,91.18Z"/></svg>