<svg id="Capa_1" data-name="Capa 1" xmlns="http://www.w3.org/2000/svg" viewBox="0 0 30 30"><defs><style>.cls-1{fill:#57595c;}</style></defs><path class="cls-1" d="M7.43,28.74V26.31A4.49,4.49,0,0,1,4.27,24.9a4.07,4.07,0,0,1-1.16-2.8c0-4.14,0-8.28,0-12.42A4.44,4.44,0,0,1,5.72,6a5.38,5.38,0,0,1,2.13-.37h.88c0-1.15-.05-2.29,0-3.4a1.06,1.06,0,0,1,1.11-.92H20a1.15,1.15,0,0,1,1.21,1.22v3.1h1a4.45,4.45,0,0,1,3.31,1.21,3.87,3.87,0,0,1,1.34,2.87c0,4-.07,8.05,0,12.05a4.48,4.48,0,0,1-4.33,4.58v2.43C17.5,28.74,12.5,28.74,7.43,28.74ZM15,21.47a8,8,0,0,0,4.9-1.63c.54-.42.69-.9.36-1.32s-.78-.42-1.35,0a6.44,6.44,0,0,1-7.79,0c-.58-.42-1-.42-1.36,0s-.18.9.36,1.32A7.75,7.75,0,0,0,15,21.47Zm4.87-6.31a1.66,1.66,0,0,0,1.65-1.62,1.63,1.63,0,0,0-1.65-1.66,1.67,1.67,0,0,0-1.63,1.66A1.62,1.62,0,0,0,19.82,15.16ZM10.1,11.88a1.63,1.63,0,1,0,.06,3.25,1.63,1.63,0,0,0,1.6-1.65A1.68,1.68,0,0,0,10.1,11.88Z"/></svg>