<?xml version="1.0" encoding="UTF-8"?>
<svg id="Capa_1" data-name="Capa 1" xmlns="http://www.w3.org/2000/svg" xmlns:xlink="http://www.w3.org/1999/xlink" viewBox="0 0 30 30">
  <defs>
    <style>
      .cls-1 {
        fill: #fff;
      }

      .cls-2 {
        fill: #666;
      }

      .cls-3 {
        fill: url(#Degradado_sin_nombre);
      }
    </style>
    <linearGradient id="Degradado_sin_nombre" data-name="Degradado sin nombre" x1="5.6665428543" y1="6.5419907941" x2="24.0033135956" y2="28.3949032017" gradientUnits="userSpaceOnUse">
      <stop offset="0" stop-color="#fff"/>
      <stop offset="1" stop-color="#1d1d1b"/>
    </linearGradient>
  </defs>
  <g id="STORE_ICON_4C_R">
    <path id="STORE_ICONPART_HANDLES" class="cls-2" d="M13.4677938379,1.6684121915c.1906185173-.019877826.3782322107.0095109215.5645312937.0852178569-1.2352173823,1.6941804519-1.4568700967,4.8802440548-1.495228552,6.0894150634h.8524779357c.0467625722-1.5759121427.3549917757-4.2952272716,1.3295406831-5.5913281029,1.1386874139,1.188151872,1.8712540951,3.786488079,2.0999493656,5.5913281029h.8618680104c-.2318409454-1.958631625-1.0257248147-4.7721524317-2.3212264769-6.1641709066.1876136934-.0981527102.3919417198-.1553133486.6156133003-.1565497684.3983269707-.002187512.7671691066.18907712,1.1260577634.583590145,1.2519317153,1.3743281609,1.8064625794,4.5548754293,1.9267494369,5.73713053h.8542150995c-.1029152192-1.3281050823-.6628453762-4.3361242342-1.8748223235-5.9839389436-.5895088925-.8016755757-1.2749843488-1.2058897406-2.0365194106-1.2024658089-.5091298527.0031386041-.9408854894.1688188571-1.3104788314.4456817828-.4088438544-.24119697-.8368434613-.3403007723-1.2787403787-.295123895-2.2701444703.232827359-2.8848187631,3.7855369869-2.9666063141,7.0358468647h.8551071566c.0967647202-3.8032748555.8846858921-6.0398631622,2.1975122421-6.1746329203Z"/>
    <path id="STORE_ICONPART_BAG" class="cls-3" d="M25.5392646152,7.8049676826c-.0055400558-.1078782857-.1038166885-.1923492079-.2221760234-.1909263288l-2.270948015-.3284245488c-.0206169219-.0054109488-.0419857086-.0092587345-.0646010078-.0093388967-.8814822351-.0023247039-4.0832387676-.0096996267-9.0793006575-.0096996267-5.0100505307,0-8.2241336874.0606627477-9.0976421993.0794006628-.1365821613.0029259204-.2467303421.0999622681-.2541104879.2244541705-.051265302.8658319628-.2502324488,4.2591782103-.5311132777,9.4748919171-.2970657062,5.5160814842-.465582332,8.5248094781-.5076273983,9.3209804858-.0060149177.1141108971.0825468314.2130310565.2060307179.2318691744l9.040045405,1.378910148,8.9358132123,1.3630380317c.0744148209.0113429518.1451692478-.0076554905.20326069-.0456924561l-.0000593577.0014830008,4.4150287522-2.8409084203c.1170336787-.0799217172.1830394864-.2075599861.1761935603-.3407895687l-.948793913-18.309247745Z"/>
    <path id="PSF_MARK_NEG" class="cls-1" d="M14.1768799142,13.43445978c-.2982158399-.0952288776-.4841405302.1817482879-.4841405302.598640686v8.8485771027l-2.3894889327-.7569182828v-10.5531820649c1.0175004802.187869076,2.4940370553.6356530454,3.291005081.9008833601,2.0200096317.6952962134,2.706653904,1.5599955914,2.706653904,3.5007226091,0,1.8995497612-1.171095444,2.6198008417-2.6584009244,1.8998834132v-3.5340187758c0-.4124053542-.0757735155-.7965078161-.4656285978-.9045880476ZM19.3839907978,18.9847950053c-1.0004382082-.3770152337-2.2733550327-.5056783408-3.3111047366-.3918109733-1.0400047311.1126017911-1.7794005322.374449565-1.7794005322.374449565l-.1462201045.0482529796v1.4379479976l2.5541864538-.9010559387c.4387753659-.1576333033,1.0757054931-.1910790381,1.4326210712-.0740017084.3514390835.1148568183.2850193287.3335944551-.1491079199.4944492259l-3.8376996051,1.3658791697v1.3822511272l5.2141981119-1.8728460974s.7012789386-.260225535.9904631645-.6198793604c.2853414755-.363508081.1589218903-.8855928952-.9679359031-1.2436359868ZM6.104181731,19.7986642297c-.5268940047.3927774135-.3342157381,1.0728176776.8211060208,1.3948148501,1.2408977396.4111282725,2.4978798057.4915384,3.6776502012.2956386659.0773842492-.0131850059.1622929258-.0260593703.23872224-.0389222294v-1.239770226l-1.1834980935.426545295c-.436198192.1608547707-1.0705741557.1930119186-1.4279499434.0736680564-.3509788739-.1148338078-.2855025489-.3342272434.150212423-.490249813l2.4612356139-.8820607862v-1.3890162088l-3.4230737394,1.2204529268s-.8281702386.2699014424-1.3144047226.6288994691Z"/>
    <path id="R" class="cls-1" d="M20.0568734918,21.544783111c-.5041944922,0-.8522857767.3755773225-.8522857767.8482589398,0,.4766394227.3480912845.8482589398.8522857767.8482589398.5040794397,0,.844232103-.3716195171.844232103-.8482589398,0-.4726816173-.3401526633-.8482589398-.844232103-.8482589398ZM20.0568734918,23.1161238901c-.4360834228,0-.7162017009-.3231133907-.7162017009-.7230818393,0-.3957805383.2801182781-.719124034.7162017009-.719124034.4280412543,0,.712174864.3233434956.712174864.719124034,0,.3999684487-.2841336097.7230818393-.712174864.7230818393ZM20.2409229474,22.3969998562v-.0039578054c.1240150704-.0364486263.1800341239-.1212192951.1800341239-.2382967009,0-.2020781795-.1320572389-.2545881323-.3120913629-.2545881323h-.388118043v.9815817561h.1761223396v-.4159837542h.1159383862c.1480495339,0,.180034124.0362185214.2081069296.1493381217.0200076266.0687553633.0519922166.1939784848.0760381854.2666456325h.1800226187c-.0280728056-.0929163845-.0640727273-.1978902692-.0960573173-.3070520642-.0319730848-.1128894954-.0760381854-.1614416428-.1399958602-.1776870533ZM20.052846655,22.340578119h-.1559766499v-.3151977799h.1679421081c.096045812,0,.1880762924.0202032159.1880762924.1535260321,0,.1131196004-.0760381854.1616717478-.2000417506.1616717478Z"/>
  </g>
</svg>