<svg xmlns="http://www.w3.org/2000/svg" viewBox="0 0 128 128"><defs><style>.cls-1{fill:#585858;}</style></defs><title>iconos-pcgaming</title><g id="Capa_2" data-name="Capa 2"><path class="cls-1" d="M120.81,75.18a5.27,5.27,0,0,0-4.91-5.33v-.14c.06-.87.11-1.75.11-2.64,0-16.77-5.64-31.14-16.27-41.64C89.62,15.47,79.23,10,64,10S38.41,15.47,28.3,25.43C17.65,35.92,12,50.3,12,67.07c0,.65,0,1.29.07,1.94l0,.84a5.28,5.28,0,0,0-4.91,5.33v35.68a5.28,5.28,0,0,0,5.17,5.4h1.76A5.27,5.27,0,0,0,18,118h5.27a5.57,5.57,0,0,0,5.45-5.67V73.72a5.57,5.57,0,0,0-5.45-5.67H19.71C20,41.37,36,17.74,65.09,17.74c26.07,0,42.81,23.55,43.21,50.32h-3.54a5.56,5.56,0,0,0-5.44,5.67v38.61a5.56,5.56,0,0,0,5.44,5.67H110a5.11,5.11,0,0,0,3.84-1.74h1.78a5.29,5.29,0,0,0,5.16-5.4Z"/></g></svg>