<svg xmlns="http://www.w3.org/2000/svg" viewBox="0 0 128 128"><defs><style>.cls-1{fill:#585858;}</style></defs><title>iconos-pcgaming</title><g id="Capa_2" data-name="Capa 2"><g id="A8eDxe"><path class="cls-1" d="M69.76,64.09h39.12c12.76,0,13.23.47,13.23,13.24,0,9.84,0,19.67,0,29.51,0,6.69-2.06,8.81-8.59,8.81q-49.48,0-99,0c-6.55,0-8.63-2.17-8.64-8.76q0-17.25,0-34.5c0-6,2.18-8.25,8.17-8.28,14.36-.06,28.72,0,43.78,0,0-3.78.11-7.33,0-10.87-.13-3.06-2.53-2.87-4.68-2.87-9.53,0-19.07.15-28.6-.06s-17-7.13-18.4-16.84C5,25.21,10.47,16.33,18.78,13.68a30,30,0,0,1,8.91-1.29c28.45-.09,56.9,0,85.34,0,9.08,0,8.55,4.25,8.82,6.41.39,3.1-2,5.26-5.46,5.31-6.05.1-12.1.08-18.16.08H28.78c-7.16,0-11.05,2.66-10.92,7.4s3.71,7,10.77,7c8.63,0,17.25,0,25.88,0,9.33,0,14.88,5.44,15.22,14.82C69.86,56.83,69.76,60.27,69.76,64.09ZM95.41,80.54V74.3H88.93v6.24ZM89,87.37v6.31h6.37V87.37ZM18.26,80.52h6.42V74.36H18.26Zm6.36,13.21V87.56H18.4v6.17Zm0,12.95v-6.17H18.4v6.17Zm14.14-13V87.47H32.49v6.25Zm50.29,6.75v6H95.4v-6Zm-50.28,6.1v-5.9H32.49v5.9ZM81,80.6V74.27H75V80.6Zm-14-.15V74.12H61v6.34Zm36.29-6.26v6.4h5.85V74.2ZM81.12,87.55H75v6.12h6.08Zm28,6.18V87.45h-5.75v6.27ZM46.92,87.4v6.21h5.81V87.4Zm-.06-6.82h5.79v-6.3H46.86Zm-14.16,0h5.79v-6.3H32.71ZM61,87.4v6.21h5.76V87.4Zm14,19.13h6V100.6H47v5.93H75Zm28.24-.11h5.86v-5.78h-5.86Z"/></g></g></svg>