<svg id="Layer_1" data-name="Layer 1" xmlns="http://www.w3.org/2000/svg" viewBox="0 0 32 32"><defs><style>.cls-1{fill:none;}.cls-2{fill:#fff;}</style></defs><title>footer_instagram</title><rect class="cls-1" width="32" height="32"/><g id="footer-instagram"><path id="Trazado_15" data-name="Trazado 15" class="cls-2" d="M22.35,8.29a1.41,1.41,0,1,0,1.41,1.4,1.4,1.4,0,0,0-1.41-1.4"/><path id="Trazado_16" data-name="Trazado 16" class="cls-2" d="M16.1,10.09A5.91,5.91,0,1,0,22,16h0a5.92,5.92,0,0,0-5.91-5.91m0,9.7A3.79,3.79,0,1,1,19.89,16a3.79,3.79,0,0,1-3.79,3.79"/><path id="Trazado_17" data-name="Trazado 17" class="cls-2" d="M20.79,28H11.21A7.21,7.21,0,0,1,4,20.79V11.21A7.21,7.21,0,0,1,11.21,4h9.58A7.21,7.21,0,0,1,28,11.21v9.58A7.22,7.22,0,0,1,20.79,28M11.21,6.26a5,5,0,0,0-5,5v9.58a5,5,0,0,0,5,4.95h9.58a5,5,0,0,0,4.95-4.95V11.21a5,5,0,0,0-4.95-5Z"/></g></svg>