<svg id="Layer_1" data-name="Layer 1" xmlns="http://www.w3.org/2000/svg" xmlns:xlink="http://www.w3.org/1999/xlink" viewBox="0 0 170 44"><defs><style>.cls-1{fill:none;}.cls-2{clip-path:url(#clip-path);}.cls-3{fill:#8b8b8b;}.cls-4{fill:#fff;}.cls-5{isolation:isolate;}</style><clipPath id="clip-path"><rect class="cls-1" x="43.45" y="1.76" width="83.89" height="22.45"/></clipPath></defs><title>footer_omnichannelV2</title><g id="eawards-omnicanal"><g id="Grupo_2" data-name="Grupo 2"><g class="cls-2"><g id="Grupo_1" data-name="Grupo 1"><path id="Trazado_1" data-name="Trazado 1" class="cls-3" d="M78.49,16.46A15.1,15.1,0,0,0,78.65,19H75.14l-.2-.86h-.09a3.81,3.81,0,0,1-3,1.11,3.3,3.3,0,0,1-3.54-3,.86.86,0,0,1,0-.16c0-2.73,2.44-4,6.28-4V12c0-.37-.25-.82-1.78-.82a7,7,0,0,0-3.08.8l-.68-2.44a9.73,9.73,0,0,1,4.44-.95c3.49,0,5,1.76,5,4.49ZM74.73,14.4c-1.71,0-2.54.43-2.54,1.26,0,.58.39.91,1.12.91a1.51,1.51,0,0,0,1.38-1.06,2.59,2.59,0,0,0,0-.56Z"/><path id="Trazado_2" data-name="Trazado 2" class="cls-3" d="M82.5,8.93l1,4.56c.23,1.07.43,2.17.6,3.22h0c.19-1.05.48-2.19.74-3.2l1.24-4.58H88l1.16,4.48c.29,1.15.56,2.23.74,3.3H90a30.85,30.85,0,0,1,.6-3.3l1-4.48H94L91,19H88.8l-1.14-4.11c-.27-1-.47-2-.68-3.18h0a29,29,0,0,1-.72,3.2L85,19H82.81L80,8.93Z"/><path id="Trazado_3" data-name="Trazado 3" class="cls-3" d="M102.12,16.63a13.2,13.2,0,0,0,.15,2.35H100.7l-.15-1.2h-.06a3.24,3.24,0,0,1-2.75,1.4,2.74,2.74,0,0,1-2.83-2.65v-.22c0-2.43,2.09-3.7,5.48-3.67v-.25c0-1-.27-2.29-2.07-2.27a4.37,4.37,0,0,0-2.31.66l-.39-1.17a5.72,5.72,0,0,1,3-.81c2.73,0,3.51,1.86,3.51,3.92Zm-1.69-2.77c-1.63,0-3.78.27-3.78,2.27A1.53,1.53,0,0,0,98,17.86h.24a2.15,2.15,0,0,0,2.14-1.61,1.9,1.9,0,0,0,.09-.58Z"/><path id="Trazado_4" data-name="Trazado 4" class="cls-3" d="M105.12,12c0-1,0-2-.08-3h.9l0,2h.06a3.07,3.07,0,0,1,2.81-2.23,2.71,2.71,0,0,1,.41,0v.93a3.7,3.7,0,0,0-.47,0c-1.37,0-2.34,1.18-2.6,2.77a4.3,4.3,0,0,0-.08.95V19h-1Z"/><path id="Trazado_5" data-name="Trazado 5" class="cls-3" d="M118.92,4.3V16.69c0,.72,0,1.59.08,2.29h-.89L118,17.1h0a3.78,3.78,0,0,1-3.54,2.11c-2.45,0-4.27-2.05-4.27-5,0-3.3,2-5.37,4.46-5.37a3.49,3.49,0,0,1,3.25,1.76h0V4.3Zm-1,8.69a3.21,3.21,0,0,0-3.22-3.32c-2.17,0-3.53,1.88-3.53,4.44,0,2.23,1.12,4.27,3.47,4.27a3.28,3.28,0,0,0,3.18-2.58,2.56,2.56,0,0,0,.1-.82Z"/><path id="Trazado_6" data-name="Trazado 6" class="cls-3" d="M121.83,17.68a4.32,4.32,0,0,0,2.23.68c1.57,0,2.31-.84,2.31-1.87s-.66-1.68-2.08-2.26c-1.63-.62-2.52-1.5-2.52-2.7a2.77,2.77,0,0,1,2.84-2.7l.21,0a3.85,3.85,0,0,1,2.19.62l-.37.8a3.4,3.4,0,0,0-2-.6,1.74,1.74,0,0,0-1.91,1.54,1.09,1.09,0,0,0,0,.18c0,1,.7,1.46,2,2,1.61.64,2.56,1.45,2.56,2.95,0,1.7-1.32,2.83-3.34,2.83a4.75,4.75,0,0,1-2.52-.68Z"/><path id="Rectángulo_2" data-name="Rectángulo 2" class="cls-3" d="M46,1.76H63.34a2.57,2.57,0,0,1,2.57,2.56h0V21.64a2.57,2.57,0,0,1-2.57,2.57H46a2.57,2.57,0,0,1-2.57-2.57h0V4.32A2.57,2.57,0,0,1,46,1.76Z"/><path id="Trazado_7" data-name="Trazado 7" class="cls-4" d="M59.65,20.07a13.3,13.3,0,0,1-5.49,1.13c-4.33,0-6.39-2.55-6.39-6.43,0-4.78,3.2-10,8.71-10,3.1,0,5.07,1.9,5.1,4.61,0,4.14-3.77,5.65-9.52,5.49a3.41,3.41,0,0,0,.45,1.68,3.25,3.25,0,0,0,2.78,1.16,8.86,8.86,0,0,0,4.07-.93Zm-3.75-12c-1.87,0-3.06,1.75-3.42,3.46,3.16.06,5-.55,5-2.1A1.36,1.36,0,0,0,56.1,8.11h-.2"/></g></g></g><g id="Mejor_Proyecto_Omnicanal" data-name="Mejor Proyecto Omnicanal" class="cls-5"><g class="cls-5"><path class="cls-3" d="M9.16,37c.05.13.1.25.14.38L9.45,37a3,3,0,0,1,.18-.36L13,30.44a.41.41,0,0,1,.19-.2,1,1,0,0,1,.28,0h1v10H13.3V32.86c0-.09,0-.2,0-.31s0-.23,0-.34L9.89,38.48a.53.53,0,0,1-.49.31H9.21a.53.53,0,0,1-.49-.31L5.2,32.19a2.16,2.16,0,0,1,0,.35c0,.12,0,.23,0,.32v7.38H4.05v-10h1a1,1,0,0,1,.28,0,.4.4,0,0,1,.18.2L9,36.61A3.78,3.78,0,0,1,9.16,37Z"/><path class="cls-3" d="M19.55,33a3,3,0,0,1,1.17.22,2.55,2.55,0,0,1,.93.61,2.72,2.72,0,0,1,.61,1,3.73,3.73,0,0,1,.23,1.34.86.86,0,0,1-.07.4.27.27,0,0,1-.24.09H17.47a4,4,0,0,0,.18,1.17,2.29,2.29,0,0,0,.46.83,1.92,1.92,0,0,0,.7.5,2.38,2.38,0,0,0,.91.16,2.8,2.8,0,0,0,.81-.1,4.07,4.07,0,0,0,.58-.24,3.54,3.54,0,0,0,.41-.23.5.5,0,0,1,.29-.11.26.26,0,0,1,.23.12l.35.45a2.17,2.17,0,0,1-.55.49,3.17,3.17,0,0,1-.69.34,4.71,4.71,0,0,1-.76.2,5.09,5.09,0,0,1-.77.06,3.74,3.74,0,0,1-1.36-.24,3,3,0,0,1-1.07-.73,3.26,3.26,0,0,1-.7-1.19,4.75,4.75,0,0,1-.26-1.62,4.18,4.18,0,0,1,.23-1.39A3.22,3.22,0,0,1,17.12,34a3,3,0,0,1,1-.74A3.41,3.41,0,0,1,19.55,33Zm0,.92a1.91,1.91,0,0,0-1.42.52,2.47,2.47,0,0,0-.64,1.45h3.86a2.53,2.53,0,0,0-.12-.8,1.79,1.79,0,0,0-.35-.62,1.66,1.66,0,0,0-.57-.41A2,2,0,0,0,19.57,34Z"/><path class="cls-3" d="M25.46,33.14v7.62a2.92,2.92,0,0,1-.11.8,1.9,1.9,0,0,1-.35.64,1.8,1.8,0,0,1-.63.43,2.48,2.48,0,0,1-.91.15,2.58,2.58,0,0,1-.42,0,1.82,1.82,0,0,1-.38-.11l.06-.67c0-.06,0-.1.06-.11a.28.28,0,0,1,.15,0h.28a1,1,0,0,0,.77-.25,1.19,1.19,0,0,0,.23-.83V33.14Zm.28-2.22a.8.8,0,0,1-.07.34,1.1,1.1,0,0,1-.2.28,1.07,1.07,0,0,1-.28.19.81.81,0,0,1-.35.07.8.8,0,0,1-.34-.07,1.26,1.26,0,0,1-.28-.19,1.07,1.07,0,0,1-.19-.28,1,1,0,0,1-.07-.34,1,1,0,0,1,.07-.35.92.92,0,0,1,.19-.28,1,1,0,0,1,.28-.2.89.89,0,0,1,.69,0,.9.9,0,0,1,.28.2,1,1,0,0,1,.2.28A.84.84,0,0,1,25.74,30.92Z"/><path class="cls-3" d="M30.5,33a3.64,3.64,0,0,1,1.4.26A2.9,2.9,0,0,1,33,34a3.26,3.26,0,0,1,.67,1.15,5.07,5.07,0,0,1,0,3A3.35,3.35,0,0,1,33,39.35a3,3,0,0,1-1.07.73,4,4,0,0,1-2.8,0A3,3,0,0,1,28,39.35a3.37,3.37,0,0,1-.68-1.15,4.87,4.87,0,0,1,0-3A3.28,3.28,0,0,1,28,34a2.9,2.9,0,0,1,1.07-.74A3.64,3.64,0,0,1,30.5,33Zm0,6.33a1.83,1.83,0,0,0,1.57-.7,4,4,0,0,0,0-3.94A1.83,1.83,0,0,0,30.5,34a2,2,0,0,0-.92.19,1.76,1.76,0,0,0-.66.52,2.51,2.51,0,0,0-.39.84,4.39,4.39,0,0,0-.13,1.13,4.33,4.33,0,0,0,.13,1.13,2.51,2.51,0,0,0,.39.84,1.86,1.86,0,0,0,.66.52A2.19,2.19,0,0,0,30.5,39.36Z"/><path class="cls-3" d="M35.41,40.24V33.15h.72a.41.41,0,0,1,.28.07.43.43,0,0,1,.1.27l.09,1.1a3.12,3.12,0,0,1,.9-1.15A2,2,0,0,1,38.75,33a1.81,1.81,0,0,1,.54.07,1.85,1.85,0,0,1,.44.18l-.16.93a.22.22,0,0,1-.22.18.88.88,0,0,1-.3-.07,2.1,2.1,0,0,0-.57-.07,1.63,1.63,0,0,0-1.09.38,2.89,2.89,0,0,0-.73,1.1v4.52Z"/><path class="cls-3" d="M45.45,36.48v3.76H44.09v-10h3a5.45,5.45,0,0,1,1.66.23,3.11,3.11,0,0,1,1.17.62,2.73,2.73,0,0,1,.69,1,3.47,3.47,0,0,1,.22,1.28,3.28,3.28,0,0,1-.24,1.28,2.79,2.79,0,0,1-.72,1,3.56,3.56,0,0,1-1.17.65,5,5,0,0,1-1.61.23Zm0-1.07h1.6a3,3,0,0,0,1-.16,2,2,0,0,0,.75-.43,1.69,1.69,0,0,0,.45-.66,2.34,2.34,0,0,0,.16-.85,1.88,1.88,0,0,0-.6-1.49,2.57,2.57,0,0,0-1.79-.54h-1.6Z"/><path class="cls-3" d="M52.31,40.24V33.15H53a.43.43,0,0,1,.28.07.49.49,0,0,1,.1.27l.09,1.1a3.21,3.21,0,0,1,.89-1.15A2,2,0,0,1,55.65,33a1.74,1.74,0,0,1,.53.07,1.57,1.57,0,0,1,.44.18l-.16.93a.2.2,0,0,1-.21.18.88.88,0,0,1-.3-.07,2.1,2.1,0,0,0-.57-.07,1.61,1.61,0,0,0-1.09.38,2.78,2.78,0,0,0-.73,1.1v4.52Z"/><path class="cls-3" d="M60.82,33a3.73,3.73,0,0,1,1.41.26,2.86,2.86,0,0,1,1.06.74A3.12,3.12,0,0,1,64,35.18a4.87,4.87,0,0,1,0,3,3.2,3.2,0,0,1-.67,1.15,3,3,0,0,1-1.06.73,4.07,4.07,0,0,1-2.81,0,3.09,3.09,0,0,1-1.07-.73,3.37,3.37,0,0,1-.68-1.15,5.07,5.07,0,0,1,0-3A3.28,3.28,0,0,1,58.35,34a3,3,0,0,1,1.07-.74A3.71,3.71,0,0,1,60.82,33Zm0,6.33a1.81,1.81,0,0,0,1.57-.7,3.25,3.25,0,0,0,.52-2,3.25,3.25,0,0,0-.52-2A1.82,1.82,0,0,0,60.82,34a2,2,0,0,0-.92.19,1.65,1.65,0,0,0-.65.52,2.34,2.34,0,0,0-.4.84,4.87,4.87,0,0,0-.13,1.13,4.81,4.81,0,0,0,.13,1.13,2.34,2.34,0,0,0,.4.84,1.74,1.74,0,0,0,.65.52A2.19,2.19,0,0,0,60.82,39.36Z"/><path class="cls-3" d="M67.64,42.33a.78.78,0,0,1-.16.22.42.42,0,0,1-.29.09h-.93l1.3-2.82-2.93-6.67h1.08a.33.33,0,0,1,.25.08.55.55,0,0,1,.14.17L68,37.87c0,.1.08.21.11.31s.06.21.08.31l.1-.31c0-.1.07-.21.11-.32l1.84-4.46a.43.43,0,0,1,.15-.18.34.34,0,0,1,.22-.07h1Z"/><path class="cls-3" d="M75.35,33a3.06,3.06,0,0,1,1.18.22,2.64,2.64,0,0,1,.93.61,2.86,2.86,0,0,1,.61,1,3.73,3.73,0,0,1,.22,1.34.89.89,0,0,1-.06.4.28.28,0,0,1-.24.09H73.27a4,4,0,0,0,.18,1.17,2.45,2.45,0,0,0,.46.83,1.87,1.87,0,0,0,.71.5,2.36,2.36,0,0,0,.9.16,2.71,2.71,0,0,0,.81-.1,4.23,4.23,0,0,0,.59-.24l.41-.23a.48.48,0,0,1,.28-.11.29.29,0,0,1,.24.12l.35.45a2.58,2.58,0,0,1-.55.49,3.68,3.68,0,0,1-.69.34,5,5,0,0,1-.76.2,5.12,5.12,0,0,1-.78.06,3.68,3.68,0,0,1-1.35-.24A3,3,0,0,1,73,39.36a3.41,3.41,0,0,1-.7-1.19A4.75,4.75,0,0,1,72,36.55a3.94,3.94,0,0,1,.23-1.39A3.36,3.36,0,0,1,72.92,34a3.13,3.13,0,0,1,1-.74A3.45,3.45,0,0,1,75.35,33Zm0,.92a1.9,1.9,0,0,0-1.42.52,2.48,2.48,0,0,0-.65,1.45h3.86a2.53,2.53,0,0,0-.12-.8,1.79,1.79,0,0,0-.35-.62,1.54,1.54,0,0,0-.56-.41A2,2,0,0,0,75.38,34Z"/><path class="cls-3" d="M84.71,34.41a.29.29,0,0,1-.11.11.23.23,0,0,1-.16,0,.42.42,0,0,1-.23-.09,2.48,2.48,0,0,0-.31-.19,2.53,2.53,0,0,0-.46-.2,2.13,2.13,0,0,0-.66-.08,2.17,2.17,0,0,0-.91.18,1.76,1.76,0,0,0-.67.54,2.35,2.35,0,0,0-.41.84,4.36,4.36,0,0,0-.13,1.12,4,4,0,0,0,.14,1.14,2.53,2.53,0,0,0,.41.84,1.81,1.81,0,0,0,.65.52,2,2,0,0,0,.86.18,2.28,2.28,0,0,0,.75-.11A2.24,2.24,0,0,0,84,39a3.78,3.78,0,0,0,.32-.24.37.37,0,0,1,.25-.11.26.26,0,0,1,.24.12l.35.45a2.65,2.65,0,0,1-1.15.83,4,4,0,0,1-1.47.26,3.14,3.14,0,0,1-1.23-.24,2.78,2.78,0,0,1-1-.71,3.31,3.31,0,0,1-.66-1.15,4.56,4.56,0,0,1-.25-1.54,4.92,4.92,0,0,1,.22-1.47,3.41,3.41,0,0,1,.65-1.15,2.79,2.79,0,0,1,1.05-.76,3.75,3.75,0,0,1,2.74,0A3.18,3.18,0,0,1,85,34Z"/><path class="cls-3" d="M88.57,40.35a1.74,1.74,0,0,1-1.3-.47,1.87,1.87,0,0,1-.45-1.35V34.19H86a.25.25,0,0,1-.19-.07.26.26,0,0,1-.08-.21v-.49l1.16-.15.29-2.19a.26.26,0,0,1,.09-.17.27.27,0,0,1,.2-.07h.63v2.44h2v.91h-2v4.25a.9.9,0,0,0,.22.67.77.77,0,0,0,.56.22.81.81,0,0,0,.33-.06,1.17,1.17,0,0,0,.25-.11l.18-.12a.27.27,0,0,1,.13,0,.21.21,0,0,1,.18.12l.36.59a2.19,2.19,0,0,1-.78.48A2.69,2.69,0,0,1,88.57,40.35Z"/><path class="cls-3" d="M94.51,33a3.68,3.68,0,0,1,1.4.26A3,3,0,0,1,97,34a3.26,3.26,0,0,1,.67,1.15,5.07,5.07,0,0,1,0,3A3.35,3.35,0,0,1,97,39.35a3.09,3.09,0,0,1-1.07.73,3.68,3.68,0,0,1-1.4.25,3.73,3.73,0,0,1-1.41-.25A3,3,0,0,1,92,39.35a3.22,3.22,0,0,1-.68-1.15,4.87,4.87,0,0,1,0-3A3.14,3.14,0,0,1,92,34a2.94,2.94,0,0,1,1.06-.74A3.73,3.73,0,0,1,94.51,33Zm0,6.33a1.83,1.83,0,0,0,1.57-.7,3.32,3.32,0,0,0,.51-2,3.32,3.32,0,0,0-.51-2A1.83,1.83,0,0,0,94.51,34a2.09,2.09,0,0,0-.93.19,1.65,1.65,0,0,0-.65.52,2.17,2.17,0,0,0-.39.84,4.39,4.39,0,0,0-.13,1.13,4.33,4.33,0,0,0,.13,1.13,2.17,2.17,0,0,0,.39.84,1.74,1.74,0,0,0,.65.52A2.24,2.24,0,0,0,94.51,39.36Z"/><path class="cls-3" d="M111.64,35.22a5.73,5.73,0,0,1-.36,2.07,4.63,4.63,0,0,1-1,1.62A4.36,4.36,0,0,1,108.71,40a5.7,5.7,0,0,1-4,0,4.55,4.55,0,0,1-1.56-1.06,4.78,4.78,0,0,1-1-1.62,6.27,6.27,0,0,1,0-4.13,4.93,4.93,0,0,1,1-1.63,4.69,4.69,0,0,1,1.56-1.06,5.56,5.56,0,0,1,4,0,4.5,4.5,0,0,1,1.56,1.06,4.77,4.77,0,0,1,1,1.63A5.68,5.68,0,0,1,111.64,35.22Zm-1.4,0a5,5,0,0,0-.25-1.65,3.46,3.46,0,0,0-.71-1.25,3.06,3.06,0,0,0-1.12-.78,3.85,3.85,0,0,0-1.47-.27,3.76,3.76,0,0,0-1.46.27,3.1,3.1,0,0,0-1.13.78,3.48,3.48,0,0,0-.72,1.25,5.6,5.6,0,0,0,0,3.31,3.52,3.52,0,0,0,.72,1.24,3.1,3.1,0,0,0,1.13.78,4,4,0,0,0,1.46.26,4,4,0,0,0,1.47-.26,3.06,3.06,0,0,0,1.12-.78,3.51,3.51,0,0,0,.71-1.24A5,5,0,0,0,110.24,35.22Z"/><path class="cls-3" d="M113.3,40.24V33.15H114a.3.3,0,0,1,.33.25l.1.73a3.8,3.8,0,0,1,.87-.79,2.13,2.13,0,0,1,1.13-.31,1.71,1.71,0,0,1,1.17.4,2.25,2.25,0,0,1,.64,1.08,2.14,2.14,0,0,1,.39-.66,2.17,2.17,0,0,1,.54-.47,2.21,2.21,0,0,1,.64-.26,2.72,2.72,0,0,1,.69-.09,2.62,2.62,0,0,1,1,.18,2,2,0,0,1,.74.52,2.4,2.4,0,0,1,.47.85,3.92,3.92,0,0,1,.16,1.14v4.52h-1.25V35.72a1.91,1.91,0,0,0-.36-1.26,1.32,1.32,0,0,0-1.06-.43,1.43,1.43,0,0,0-.58.11,1.32,1.32,0,0,0-.49.31,1.49,1.49,0,0,0-.33.53,1.92,1.92,0,0,0-.13.74v4.52h-1.24V35.72a2,2,0,0,0-.35-1.27,1.2,1.2,0,0,0-1-.42,1.53,1.53,0,0,0-.85.25,2.7,2.7,0,0,0-.73.67v5.29Z"/><path class="cls-3" d="M124.79,40.24V33.15h.74a.32.32,0,0,1,.34.25l.1.77a3.84,3.84,0,0,1,1-.82,2.69,2.69,0,0,1,1.32-.32,2.47,2.47,0,0,1,1,.2,1.85,1.85,0,0,1,.74.54,2.57,2.57,0,0,1,.46.85,3.8,3.8,0,0,1,.15,1.1v4.52h-1.25V35.72a1.94,1.94,0,0,0-.36-1.25A1.4,1.4,0,0,0,128,34a2.16,2.16,0,0,0-1,.26A3.48,3.48,0,0,0,126,35v5.23Z"/><path class="cls-3" d="M134.24,30.92a1,1,0,0,1-.07.34,1.1,1.1,0,0,1-.2.28,1.07,1.07,0,0,1-.28.19.84.84,0,0,1-.35.07.8.8,0,0,1-.34-.07,1.26,1.26,0,0,1-.28-.19,1.07,1.07,0,0,1-.19-.28,1,1,0,0,1-.07-.34,1,1,0,0,1,.07-.35.92.92,0,0,1,.19-.28,1,1,0,0,1,.28-.2,1,1,0,0,1,.34-.07,1,1,0,0,1,.35.07.9.9,0,0,1,.28.2,1,1,0,0,1,.2.28A1,1,0,0,1,134.24,30.92ZM134,33.15v7.09h-1.25V33.15Z"/><path class="cls-3" d="M141,34.41a.4.4,0,0,1-.12.11.23.23,0,0,1-.16,0,.42.42,0,0,1-.23-.09,2.48,2.48,0,0,0-.31-.19,2.53,2.53,0,0,0-.46-.2,2.13,2.13,0,0,0-.66-.08,2.17,2.17,0,0,0-.91.18,1.76,1.76,0,0,0-.67.54,2.35,2.35,0,0,0-.41.84,4.35,4.35,0,0,0-.14,1.12,3.94,3.94,0,0,0,.15,1.14,2.36,2.36,0,0,0,.42.84,1.69,1.69,0,0,0,.64.52,2,2,0,0,0,.86.18,2.28,2.28,0,0,0,.75-.11,2.24,2.24,0,0,0,.49-.24l.32-.24a.35.35,0,0,1,.25-.11.26.26,0,0,1,.24.12l.35.45a2.65,2.65,0,0,1-1.15.83,4,4,0,0,1-1.47.26,3.14,3.14,0,0,1-1.23-.24,2.78,2.78,0,0,1-1-.71,3.31,3.31,0,0,1-.66-1.15,4.33,4.33,0,0,1-.25-1.54,4.92,4.92,0,0,1,.22-1.47,3.41,3.41,0,0,1,.65-1.15,2.83,2.83,0,0,1,1-.76A3.44,3.44,0,0,1,139,33a3.38,3.38,0,0,1,1.32.24,3.18,3.18,0,0,1,1,.69Z"/><path class="cls-3" d="M147.9,40.24h-.55a.6.6,0,0,1-.29-.06.3.3,0,0,1-.15-.24l-.14-.66c-.19.17-.37.32-.55.46a2.84,2.84,0,0,1-.56.33,3,3,0,0,1-.62.21,4.14,4.14,0,0,1-.74.07,2.39,2.39,0,0,1-.77-.12,1.63,1.63,0,0,1-.63-.35,1.55,1.55,0,0,1-.42-.58,2,2,0,0,1-.16-.84,1.51,1.51,0,0,1,.23-.81,2,2,0,0,1,.74-.69,4.78,4.78,0,0,1,1.35-.5,9.19,9.19,0,0,1,2-.19v-.56a2,2,0,0,0-.35-1.26,1.31,1.31,0,0,0-1.05-.42,2.46,2.46,0,0,0-.77.11,3.41,3.41,0,0,0-.54.26l-.39.26a.56.56,0,0,1-.32.12.38.38,0,0,1-.22-.07.44.44,0,0,1-.16-.17l-.22-.39a4.1,4.1,0,0,1,1.27-.85,3.82,3.82,0,0,1,1.5-.28,2.71,2.71,0,0,1,1.06.19,2.34,2.34,0,0,1,.78.55,2.2,2.2,0,0,1,.47.85,3.42,3.42,0,0,1,.16,1.09Zm-3.23-.77a2.77,2.77,0,0,0,.6-.06,3.24,3.24,0,0,0,.52-.19,2.59,2.59,0,0,0,.46-.3,4,4,0,0,0,.43-.4V37.06a7.62,7.62,0,0,0-1.46.11,3.74,3.74,0,0,0-1,.28,1.31,1.31,0,0,0-.55.42.87.87,0,0,0-.18.53,1.07,1.07,0,0,0,.1.49.83.83,0,0,0,.24.33,1,1,0,0,0,.36.19A1.7,1.7,0,0,0,144.67,39.47Z"/><path class="cls-3" d="M149.79,40.24V33.15h.75a.31.31,0,0,1,.33.25l.1.77a4,4,0,0,1,1-.82,2.69,2.69,0,0,1,1.32-.32,2.56,2.56,0,0,1,1,.2,2,2,0,0,1,.74.54,2.39,2.39,0,0,1,.45.85,3.8,3.8,0,0,1,.15,1.1v4.52h-1.24V35.72a1.88,1.88,0,0,0-.37-1.25A1.38,1.38,0,0,0,153,34a2.2,2.2,0,0,0-1,.26A3.66,3.66,0,0,0,151,35v5.23Z"/><path class="cls-3" d="M162.79,40.24h-.56a.6.6,0,0,1-.29-.06.33.33,0,0,1-.15-.24l-.14-.66-.54.46a3.57,3.57,0,0,1-.56.33,3.33,3.33,0,0,1-.63.21,4.14,4.14,0,0,1-.74.07,2.43,2.43,0,0,1-.77-.12,1.63,1.63,0,0,1-.63-.35,1.55,1.55,0,0,1-.42-.58,2,2,0,0,1-.16-.84,1.61,1.61,0,0,1,.23-.81,2,2,0,0,1,.75-.69,4.59,4.59,0,0,1,1.34-.5,9.19,9.19,0,0,1,2-.19v-.56a2,2,0,0,0-.35-1.26,1.31,1.31,0,0,0-1.05-.42,2.46,2.46,0,0,0-.77.11,3.74,3.74,0,0,0-.53.26l-.4.26a.53.53,0,0,1-.32.12.38.38,0,0,1-.22-.07.35.35,0,0,1-.15-.17l-.23-.39a4.1,4.1,0,0,1,1.27-.85,3.82,3.82,0,0,1,1.5-.28,2.71,2.71,0,0,1,1.06.19,2.34,2.34,0,0,1,.78.55,2.2,2.2,0,0,1,.47.85,3.41,3.41,0,0,1,.17,1.09Zm-3.24-.77a2.77,2.77,0,0,0,.6-.06,2.66,2.66,0,0,0,.52-.19,2.59,2.59,0,0,0,.46-.3,4,4,0,0,0,.43-.4V37.06a7.68,7.68,0,0,0-1.46.11,3.86,3.86,0,0,0-1,.28,1.38,1.38,0,0,0-.55.42.86.86,0,0,0-.17.53,1.22,1.22,0,0,0,.09.49.83.83,0,0,0,.24.33.93.93,0,0,0,.37.19A1.63,1.63,0,0,0,159.55,39.47Z"/><path class="cls-3" d="M166.06,29.93V40.24h-1.24V29.93Z"/></g></g></g><rect class="cls-1" width="170" height="44"/></svg>