<svg id="Layer_1" data-name="Layer 1" xmlns="http://www.w3.org/2000/svg" xmlns:xlink="http://www.w3.org/1999/xlink" viewBox="0 0 32 32"><defs><style>.cls-1{fill:none;}.cls-2{clip-path:url(#clip-path);}.cls-3{fill:#fff;}</style><clipPath id="clip-path"><rect class="cls-1" x="4" y="4.35" width="24" height="23.29"/></clipPath></defs><title>footer_sequra</title><rect class="cls-1" width="32" height="32"/><g class="cls-2"><g id="Grupo_41" data-name="Grupo 41"><path id="Trazado_65" data-name="Trazado 65" class="cls-3" d="M14.8,4.35a10.8,10.8,0,0,1,6.51,2,8.91,8.91,0,0,1,2.74,3.17,10.63,10.63,0,0,1,.79,8.19,9.45,9.45,0,0,1-1.32,2.73.41.41,0,0,1-.56.21.38.38,0,0,1-.13-.09l-3.08-2.39a.44.44,0,0,1-.15-.59,7.34,7.34,0,0,0,.52-4.36c-.72-4-4.22-5.82-7.73-4.41A5,5,0,0,0,9.55,12a7.43,7.43,0,0,0,.08,5.37,5.33,5.33,0,0,0,2.9,3c.37.16.43,0,.38-.31s-.08-.69-.12-1a.48.48,0,0,1,.35-.58h.11L15.9,18c.63-.11.76,0,.79.61a5.21,5.21,0,0,0,1.55,3.62,5.13,5.13,0,0,0,7.07,0c.46-.44.64-.42,1,.11.51.75,1,1.5,1.56,2.23a.48.48,0,0,1,0,.67l-.1.07a9,9,0,0,1-12.13-.19A.84.84,0,0,0,15,25a12.36,12.36,0,0,1-4.61-.86,9.8,9.8,0,0,1-5.14-4.58,10.37,10.37,0,0,1-.76-8.14A9.4,9.4,0,0,1,9.9,5.33a10.86,10.86,0,0,1,4.9-1"/></g></g></svg>