<svg id="Layer_1" data-name="Layer 1" xmlns="http://www.w3.org/2000/svg" xmlns:xlink="http://www.w3.org/1999/xlink" viewBox="0 0 32 32"><defs><style>.cls-1{fill:none;}.cls-2{clip-path:url(#clip-path);}.cls-3{fill:#fff;}</style><clipPath id="clip-path"><rect class="cls-1" x="6.58" y="2" width="18.85" height="28"/></clipPath></defs><title>footer_walletcard</title><rect class="cls-1" width="32" height="32"/><g class="cls-2"><g id="Grupo_29" data-name="Grupo 29"><path id="Trazado_43" data-name="Trazado 43" class="cls-3" d="M23.26,4.07a.1.1,0,0,1,.1.09h0V27.84a.1.1,0,0,1-.1.09H8.73a.08.08,0,0,1-.08-.09V4.16a.09.09,0,0,1,.08-.09Zm0-1.38H8.73A1.46,1.46,0,0,0,7.27,4.16h0V27.84a1.46,1.46,0,0,0,1.46,1.47H23.26a1.47,1.47,0,0,0,1.47-1.47h0V4.16a1.47,1.47,0,0,0-1.47-1.47"/><path id="Trazado_44" data-name="Trazado 44" class="cls-3" d="M12.93,17.39a3,3,0,0,1-1.31.3,1.9,1.9,0,0,1-1.42-.56A1.6,1.6,0,0,1,9.76,16a1.72,1.72,0,0,1,.62-1.28,2,2,0,0,1,1.25-.4,3.12,3.12,0,0,1,1.23.29V15s0,.16-.16.16l-.09,0a2.51,2.51,0,0,0-1-.25h0a1.1,1.1,0,0,0-1.14,1,1.13,1.13,0,0,0,.44.91,1.46,1.46,0,0,0,.76.22,4.09,4.09,0,0,0,.61-.1v-.65H11.7a.18.18,0,0,1-.18-.16h0v-.42h1.24s.17,0,.17.2Z"/><path id="Trazado_45" data-name="Trazado 45" class="cls-3" d="M16.17,17.25l-1.24-2.92h-.32a.18.18,0,0,0-.19.12l-.19.46-.38.89-.39.92c-.11.26-.19.45-.21.51-.1.24.06.28.07.28l.5.16.33-.87h1.1l.33.87a5.08,5.08,0,0,0,.54-.17c.14-.06.06-.23.05-.24m-1.79-1,.33-.85.33.85Z"/><path id="Trazado_46" data-name="Trazado 46" class="cls-3" d="M19.62,15.8v1.5a.18.18,0,0,1-.14.21l-.53.17v-2l-.63.95a.36.36,0,0,1-.29.16.37.37,0,0,1-.3-.16l-.63-.95v2l-.53-.16a.2.2,0,0,1-.14-.22V14.5a.17.17,0,0,1,.17-.17h.45l1,1.5c0-.09.9-1.39.94-1.44s.05-.06.15-.06h.51Z"/><path id="Trazado_47" data-name="Trazado 47" class="cls-3" d="M22.24,17.51c0,.15-.17.16-.18.16H20.15c-.23,0-.21-.17-.21-.18v-3a.18.18,0,0,1,.15-.19H22.2v.42a.18.18,0,0,1-.17.18H20.61v.74h1.55v.42a.19.19,0,0,1-.19.19H20.62v.78h1.62Z"/><path id="Trazado_48" data-name="Trazado 48" class="cls-3" d="M19.35,8.36h-6.7a1,1,0,0,1,0-2H15a1,1,0,0,1,1.13-.88,1,1,0,0,1,.89.88h2.33a1,1,0,0,1,1,1,1,1,0,0,1-1,1h0"/></g></g></svg>