<svg id="Layer_1" data-name="Layer 1" xmlns="http://www.w3.org/2000/svg" xmlns:xlink="http://www.w3.org/1999/xlink" viewBox="0 0 170 44"><defs><style>.cls-1{fill:none;}.cls-2{clip-path:url(#clip-path);}.cls-3{fill:#8b8b8b;}.cls-4{fill:#fff;}.cls-5{isolation:isolate;}</style><clipPath id="clip-path"><rect class="cls-1" x="42.6" y="1.87" width="83.89" height="22.45"/></clipPath></defs><title>footer_eCommerceV2</title><g id="Grupo_1" data-name="Grupo 1"><g class="cls-2"><g id="Grupo_1-2" data-name="Grupo 1-2"><path id="Trazado_1" data-name="Trazado 1" class="cls-3" d="M77.64,16.58a14.06,14.06,0,0,0,.17,2.51H74.3l-.21-.86H74a3.84,3.84,0,0,1-3,1.11,3.3,3.3,0,0,1-3.55-3c0-.06,0-.11,0-.17,0-2.72,2.44-4,6.28-4v-.07c0-.37-.25-.82-1.78-.82a7,7,0,0,0-3.07.8l-.68-2.43a9.46,9.46,0,0,1,4.44-1c3.49,0,5,1.75,5,4.48Zm-3.76-2.07c-1.71,0-2.54.43-2.54,1.26,0,.58.4.91,1.12.91a1.5,1.5,0,0,0,1.38-1.06,2,2,0,0,0,0-.55Z"/><path id="Trazado_2" data-name="Trazado 2" class="cls-3" d="M81.65,9l.95,4.56c.23,1.07.44,2.17.6,3.22h0c.19-1.05.48-2.19.75-3.2L85.22,9h1.94l1.16,4.48c.29,1.15.56,2.23.75,3.3h.05a30.85,30.85,0,0,1,.6-3.3l1-4.48h2.4l-3,10.05H88L86.82,15c-.27-1-.48-2-.69-3.18h0a25.07,25.07,0,0,1-.72,3.2l-1.2,4.09H82L79.13,9Z"/><path id="Trazado_3" data-name="Trazado 3" class="cls-3" d="M101.27,16.74a15.38,15.38,0,0,0,.15,2.35H99.85l-.15-1.2h-.06a3.22,3.22,0,0,1-2.74,1.4,2.73,2.73,0,0,1-2.83-2.64.89.89,0,0,1,0-.23c0-2.43,2.08-3.7,5.47-3.67v-.24c0-1-.27-2.3-2.07-2.28a4.31,4.31,0,0,0-2.31.67l-.39-1.18a5.74,5.74,0,0,1,3-.81c2.73,0,3.52,1.86,3.52,3.93ZM99.58,14c-1.63,0-3.78.27-3.78,2.28A1.54,1.54,0,0,0,97.11,18h.24a2.17,2.17,0,0,0,2.15-1.61,1.89,1.89,0,0,0,.08-.58Z"/><path id="Trazado_4" data-name="Trazado 4" class="cls-3" d="M104.27,12.16c0-1,0-2-.08-3h.91l0,2h.06A3.07,3.07,0,0,1,108,9a3,3,0,0,1,.42,0v.93a3.85,3.85,0,0,0-.48,0c-1.36,0-2.33,1.18-2.6,2.77a4.3,4.3,0,0,0-.08.95v5.47h-1Z"/><path id="Trazado_5" data-name="Trazado 5" class="cls-3" d="M118.07,4.41V16.8c0,.72,0,1.59.08,2.29h-.89l-.08-1.88h0a3.74,3.74,0,0,1-3.53,2.11c-2.46,0-4.28-2-4.28-5,0-3.3,2-5.37,4.46-5.37A3.49,3.49,0,0,1,117,10.71h0V4.41Zm-1,8.7a3.91,3.91,0,0,0-.1-.91,3.18,3.18,0,0,0-3.12-2.42c-2.17,0-3.54,1.88-3.54,4.44,0,2.23,1.12,4.28,3.47,4.28A3.29,3.29,0,0,0,117,15.91a2.28,2.28,0,0,0,.1-.82Z"/><path id="Trazado_6" data-name="Trazado 6" class="cls-3" d="M121,17.79a4.43,4.43,0,0,0,2.23.69c1.57,0,2.32-.85,2.32-1.88s-.66-1.68-2.09-2.25c-1.63-.62-2.52-1.51-2.52-2.7A2.76,2.76,0,0,1,123.76,9H124a3.87,3.87,0,0,1,2.19.62l-.37.81a3.29,3.29,0,0,0-2-.6,1.73,1.73,0,0,0-1.91,1.53c0,.06,0,.12,0,.18,0,1,.7,1.47,2,2,1.61.64,2.56,1.45,2.56,3,0,1.69-1.32,2.83-3.35,2.83a4.9,4.9,0,0,1-2.52-.69Z"/><path id="Rectángulo_2" data-name="Rectángulo 2" class="cls-3" d="M45.17,1.87H62.49a2.57,2.57,0,0,1,2.57,2.57h0V21.75a2.57,2.57,0,0,1-2.57,2.57H45.17a2.57,2.57,0,0,1-2.56-2.57h0V4.44a2.57,2.57,0,0,1,2.56-2.57Z"/><path id="Trazado_7" data-name="Trazado 7" class="cls-4" d="M58.8,20.18a13.07,13.07,0,0,1-5.48,1.13c-4.33,0-6.4-2.55-6.4-6.42,0-4.78,3.2-10,8.72-10,3.1,0,5.07,1.9,5.1,4.61,0,4.14-3.78,5.65-9.53,5.49a3.42,3.42,0,0,0,.46,1.68,3.23,3.23,0,0,0,2.77,1.16,8.83,8.83,0,0,0,4.07-.93ZM55.06,8.24c-1.88,0-3.07,1.74-3.42,3.45,3.16.06,5-.55,5-2.1a1.38,1.38,0,0,0-1.36-1.37l-.19,0"/></g></g></g><g id="Mejor_eCommerce" data-name="Mejor eCommerce" class="cls-5"><g class="cls-5"><path class="cls-3" d="M34.1,37.07c0,.13.1.25.14.38l.15-.38q.07-.16.18-.36L38,30.55c.06-.11.12-.18.19-.2a1,1,0,0,1,.28,0h1v10H38.24V33c0-.1,0-.21,0-.32s0-.22,0-.34l-3.44,6.27a.55.55,0,0,1-.49.32h-.19a.54.54,0,0,1-.49-.32L30.14,32.3a2.16,2.16,0,0,1,0,.35c0,.12,0,.23,0,.33v7.37H29v-10h1a1.07,1.07,0,0,1,.29,0,.4.4,0,0,1,.18.2l3.47,6.17A3.78,3.78,0,0,1,34.1,37.07Z"/><path class="cls-3" d="M44.48,33.14a3.22,3.22,0,0,1,1.18.22,2.69,2.69,0,0,1,.93.61,2.72,2.72,0,0,1,.61,1,3.75,3.75,0,0,1,.22,1.35.87.87,0,0,1-.06.39.27.27,0,0,1-.24.1H42.41A3.67,3.67,0,0,0,42.59,38a2.21,2.21,0,0,0,.46.83,1.81,1.81,0,0,0,.7.5,2.38,2.38,0,0,0,.91.17,2.78,2.78,0,0,0,.81-.11,4.07,4.07,0,0,0,.58-.24,3.54,3.54,0,0,0,.41-.23.59.59,0,0,1,.29-.11.26.26,0,0,1,.23.12l.35.45a2.36,2.36,0,0,1-.55.49,3.17,3.17,0,0,1-.69.34,4.71,4.71,0,0,1-.76.2,5.14,5.14,0,0,1-.78.07,3.68,3.68,0,0,1-1.35-.25,3,3,0,0,1-1.07-.73,3.26,3.26,0,0,1-.7-1.19,4.75,4.75,0,0,1-.26-1.62,4.18,4.18,0,0,1,.23-1.39,3.09,3.09,0,0,1,.66-1.11,2.93,2.93,0,0,1,1-.75A3.4,3.4,0,0,1,44.48,33.14Zm0,.92a2,2,0,0,0-1.42.52A2.47,2.47,0,0,0,42.45,36H46.3a2.54,2.54,0,0,0-.11-.8,1.88,1.88,0,0,0-.35-.62,1.81,1.81,0,0,0-.57-.41A2,2,0,0,0,44.51,34.06Z"/><path class="cls-3" d="M50.4,33.26v7.61a2.92,2.92,0,0,1-.11.8,1.66,1.66,0,0,1-1,1.07,2.47,2.47,0,0,1-.91.16,2.5,2.5,0,0,1-.42,0,2.66,2.66,0,0,1-.38-.1l.06-.68a.11.11,0,0,1,.06-.11.28.28,0,0,1,.15,0h.28a1,1,0,0,0,.77-.25,1.18,1.18,0,0,0,.23-.82V33.26ZM50.68,31a.77.77,0,0,1-.07.34,1,1,0,0,1-.2.28.87.87,0,0,1-.28.19.84.84,0,0,1-.35.07.8.8,0,0,1-.34-.07,1,1,0,0,1-.28-.19.92.92,0,0,1-.19-.28A.77.77,0,0,1,48.9,31a.84.84,0,0,1,.07-.35.92.92,0,0,1,.19-.28,1.31,1.31,0,0,1,.28-.2,1,1,0,0,1,.34-.07,1,1,0,0,1,.35.07,1.1,1.1,0,0,1,.28.2,1,1,0,0,1,.2.28A.84.84,0,0,1,50.68,31Z"/><path class="cls-3" d="M55.44,33.14a3.64,3.64,0,0,1,1.4.26,3,3,0,0,1,1.07.74,3.35,3.35,0,0,1,.67,1.15,5.07,5.07,0,0,1,0,3,3.35,3.35,0,0,1-.67,1.15,2.87,2.87,0,0,1-1.07.73,3.9,3.9,0,0,1-2.8,0A2.87,2.87,0,0,1,53,39.46a3.22,3.22,0,0,1-.68-1.15,4.87,4.87,0,0,1,0-3A3.22,3.22,0,0,1,53,34.14,3,3,0,0,1,54,33.4,3.64,3.64,0,0,1,55.44,33.14Zm0,6.33a1.83,1.83,0,0,0,1.57-.7,3.29,3.29,0,0,0,.52-2,3.33,3.33,0,0,0-.52-2,1.83,1.83,0,0,0-1.57-.71,2.15,2.15,0,0,0-.92.19,1.68,1.68,0,0,0-.66.52,2.51,2.51,0,0,0-.39.84,4.47,4.47,0,0,0-.13,1.14,4.25,4.25,0,0,0,.13,1.12,2.51,2.51,0,0,0,.39.84,1.78,1.78,0,0,0,.66.52A2.16,2.16,0,0,0,55.44,39.47Z"/><path class="cls-3" d="M60.35,40.35V33.26h.72a.41.41,0,0,1,.28.07.49.49,0,0,1,.1.27l.09,1.11a3.08,3.08,0,0,1,.9-1.16,2,2,0,0,1,1.25-.42,1.7,1.7,0,0,1,.53.07,1.77,1.77,0,0,1,.45.18l-.17.93a.2.2,0,0,1-.21.18.88.88,0,0,1-.3-.07,2.16,2.16,0,0,0-.57-.06,1.62,1.62,0,0,0-1.09.37,2.86,2.86,0,0,0-.73,1.1v4.52Z"/><path class="cls-3" d="M71.5,33.14a3.22,3.22,0,0,1,1.18.22,2.69,2.69,0,0,1,.93.61,2.72,2.72,0,0,1,.61,1,3.75,3.75,0,0,1,.22,1.35.87.87,0,0,1-.06.39.27.27,0,0,1-.24.1H69.43A3.41,3.41,0,0,0,69.61,38a2.21,2.21,0,0,0,.46.83,1.81,1.81,0,0,0,.7.5,2.38,2.38,0,0,0,.91.17,2.78,2.78,0,0,0,.81-.11,4.07,4.07,0,0,0,.58-.24,3.54,3.54,0,0,0,.41-.23.59.59,0,0,1,.29-.11.26.26,0,0,1,.23.12l.35.45a2.36,2.36,0,0,1-.55.49,3.17,3.17,0,0,1-.69.34,4.71,4.71,0,0,1-.76.2,5.14,5.14,0,0,1-.78.07,3.68,3.68,0,0,1-1.35-.25,3,3,0,0,1-1.07-.73,3.26,3.26,0,0,1-.7-1.19,4.75,4.75,0,0,1-.26-1.62,4.18,4.18,0,0,1,.23-1.39,3.09,3.09,0,0,1,.66-1.11,2.93,2.93,0,0,1,1-.75A3.4,3.4,0,0,1,71.5,33.14Zm0,.92a2,2,0,0,0-1.42.52A2.47,2.47,0,0,0,69.47,36h3.85a2.28,2.28,0,0,0-.12-.8,1.7,1.7,0,0,0-.34-.62,1.81,1.81,0,0,0-.57-.41A2,2,0,0,0,71.53,34.06Z"/><path class="cls-3" d="M83.3,38.28a.28.28,0,0,1,.2.09L84,39a4.44,4.44,0,0,1-1.49,1.11,5.55,5.55,0,0,1-4.09,0A4.16,4.16,0,0,1,77,39a4.86,4.86,0,0,1-1-1.62,6.24,6.24,0,0,1-.34-2.07A5.58,5.58,0,0,1,76,33.26a4.56,4.56,0,0,1,2.62-2.68,5.42,5.42,0,0,1,2.05-.38A4.6,4.6,0,0,1,84,31.48l-.44.62a.43.43,0,0,1-.11.12.3.3,0,0,1-.18,0,.35.35,0,0,1-.19-.06L82.84,32l-.32-.21-.45-.21a4.13,4.13,0,0,0-.61-.16,3.68,3.68,0,0,0-.79-.07,3.74,3.74,0,0,0-1.47.28,3.17,3.17,0,0,0-1.15.78,3.63,3.63,0,0,0-.75,1.25A4.76,4.76,0,0,0,77,35.34,4.84,4.84,0,0,0,77.3,37,3.7,3.7,0,0,0,78,38.25a3,3,0,0,0,1.1.77,3.54,3.54,0,0,0,1.38.27,6.47,6.47,0,0,0,.8,0,3.18,3.18,0,0,0,.66-.17,2.52,2.52,0,0,0,.57-.28,4.48,4.48,0,0,0,.53-.41A.34.34,0,0,1,83.3,38.28Z"/><path class="cls-3" d="M88.49,33.14a3.73,3.73,0,0,1,1.41.26,3.07,3.07,0,0,1,1.06.74,3.2,3.2,0,0,1,.67,1.15,4.87,4.87,0,0,1,0,3A3.2,3.2,0,0,1,91,39.46a2.92,2.92,0,0,1-1.06.73,3.73,3.73,0,0,1-1.41.26,3.68,3.68,0,0,1-1.4-.26A3,3,0,0,1,86,39.46a3.37,3.37,0,0,1-.68-1.15,5.07,5.07,0,0,1,0-3A3.37,3.37,0,0,1,86,34.14a3.11,3.11,0,0,1,1.07-.74A3.68,3.68,0,0,1,88.49,33.14Zm0,6.33a1.81,1.81,0,0,0,1.57-.7,3.22,3.22,0,0,0,.52-2,3.26,3.26,0,0,0-.52-2,1.82,1.82,0,0,0-1.57-.71,2.19,2.19,0,0,0-.92.19,1.76,1.76,0,0,0-.66.52,2.51,2.51,0,0,0-.39.84,5,5,0,0,0-.13,1.14,4.72,4.72,0,0,0,.13,1.12,2.51,2.51,0,0,0,.39.84,1.86,1.86,0,0,0,.66.52A2.19,2.19,0,0,0,88.49,39.47Z"/><path class="cls-3" d="M93.41,40.35V33.26h.74a.32.32,0,0,1,.34.26l.09.72a3.8,3.8,0,0,1,.87-.79,2.16,2.16,0,0,1,1.14-.31,1.7,1.7,0,0,1,1.16.4,2.25,2.25,0,0,1,.64,1.08,2.14,2.14,0,0,1,.39-.66,2.4,2.4,0,0,1,.54-.47,2.21,2.21,0,0,1,.64-.26,2.72,2.72,0,0,1,.69-.09,2.59,2.59,0,0,1,1,.18,2.07,2.07,0,0,1,.74.52,2.26,2.26,0,0,1,.47.85,3.92,3.92,0,0,1,.16,1.14v4.52h-1.25V35.83a1.93,1.93,0,0,0-.36-1.26,1.3,1.3,0,0,0-1.06-.43,1.43,1.43,0,0,0-.58.11,1.34,1.34,0,0,0-.49.32,1.45,1.45,0,0,0-.33.52,2.13,2.13,0,0,0-.12.74v4.52H97.58V35.83a2,2,0,0,0-.34-1.27,1.23,1.23,0,0,0-1-.42,1.54,1.54,0,0,0-.86.25,2.7,2.7,0,0,0-.73.67v5.29Z"/><path class="cls-3" d="M104.9,40.35V33.26h.74a.32.32,0,0,1,.34.26l.09.72a3.65,3.65,0,0,1,.88-.79,2.1,2.1,0,0,1,1.13-.31,1.68,1.68,0,0,1,1.16.4,2.25,2.25,0,0,1,.64,1.08,2.14,2.14,0,0,1,.39-.66,2.69,2.69,0,0,1,.55-.47,2.1,2.1,0,0,1,.64-.26,2.61,2.61,0,0,1,.69-.09,2.57,2.57,0,0,1,1,.18,2.1,2.1,0,0,1,.75.52,2.39,2.39,0,0,1,.46.85,3.61,3.61,0,0,1,.16,1.14v4.52h-1.24V35.83a1.93,1.93,0,0,0-.37-1.26,1.28,1.28,0,0,0-1.05-.43,1.47,1.47,0,0,0-.59.11,1.43,1.43,0,0,0-.49.32,1.45,1.45,0,0,0-.33.52,2.13,2.13,0,0,0-.12.74v4.52h-1.25V35.83a2,2,0,0,0-.34-1.27,1.22,1.22,0,0,0-1-.42,1.54,1.54,0,0,0-.86.25,2.82,2.82,0,0,0-.72.67v5.29Z"/><path class="cls-3" d="M119.2,33.14a3.22,3.22,0,0,1,1.18.22,2.69,2.69,0,0,1,.93.61,2.72,2.72,0,0,1,.61,1,3.75,3.75,0,0,1,.22,1.35.87.87,0,0,1-.06.39.27.27,0,0,1-.24.1h-4.72A4,4,0,0,0,117.3,38a2.37,2.37,0,0,0,.47.83,1.74,1.74,0,0,0,.7.5,2.38,2.38,0,0,0,.91.17,2.78,2.78,0,0,0,.81-.11,4.07,4.07,0,0,0,.58-.24l.41-.23a.56.56,0,0,1,.28-.11.26.26,0,0,1,.24.12l.35.45a2.36,2.36,0,0,1-.55.49,3.68,3.68,0,0,1-.69.34,5,5,0,0,1-.76.2,5.14,5.14,0,0,1-.78.07,3.68,3.68,0,0,1-1.35-.25,3,3,0,0,1-1.07-.73,3.43,3.43,0,0,1-.71-1.19,4.75,4.75,0,0,1-.25-1.62,4.18,4.18,0,0,1,.23-1.39,3.22,3.22,0,0,1,.65-1.11,3.06,3.06,0,0,1,1-.75A3.4,3.4,0,0,1,119.2,33.14Zm0,.92a1.94,1.94,0,0,0-1.42.52,2.41,2.41,0,0,0-.64,1.45H121a2.53,2.53,0,0,0-.12-.8,1.72,1.72,0,0,0-.35-.62,1.66,1.66,0,0,0-.56-.41A2,2,0,0,0,119.23,34.06Z"/><path class="cls-3" d="M123.73,40.35V33.26h.72a.38.38,0,0,1,.27.07.42.42,0,0,1,.11.27l.08,1.11a3.3,3.3,0,0,1,.9-1.16,2,2,0,0,1,1.26-.42,1.74,1.74,0,0,1,.53.07,1.57,1.57,0,0,1,.44.18l-.16.93a.2.2,0,0,1-.21.18.88.88,0,0,1-.3-.07,2.16,2.16,0,0,0-.57-.06,1.6,1.6,0,0,0-1.09.37,2.86,2.86,0,0,0-.73,1.1v4.52Z"/><path class="cls-3" d="M134.21,34.52l-.11.12a.34.34,0,0,1-.16,0,.4.4,0,0,1-.23-.09,3.54,3.54,0,0,0-.31-.19,2.88,2.88,0,0,0-.46-.2,2.48,2.48,0,0,0-.66-.08,2.22,2.22,0,0,0-.92.18,2,2,0,0,0-.67.54,2.31,2.31,0,0,0-.4.85,4.21,4.21,0,0,0-.14,1.11,3.94,3.94,0,0,0,.15,1.14,2.2,2.2,0,0,0,.41.84,1.73,1.73,0,0,0,.65.52,2,2,0,0,0,.85.18,2.2,2.2,0,0,0,.75-.11,2,2,0,0,0,.49-.24l.33-.24a.38.38,0,0,1,.25-.11.29.29,0,0,1,.24.12l.35.45a2.68,2.68,0,0,1-1.16.83,4,4,0,0,1-1.46.27,3.16,3.16,0,0,1-1.24-.25,2.78,2.78,0,0,1-1-.71,3.35,3.35,0,0,1-.66-1.14,4.67,4.67,0,0,1-.24-1.55,4.52,4.52,0,0,1,.22-1.46,3.34,3.34,0,0,1,.64-1.16,3,3,0,0,1,1.05-.76,3.58,3.58,0,0,1,1.43-.28,3.36,3.36,0,0,1,1.31.25,3,3,0,0,1,1,.68Z"/><path class="cls-3" d="M138.72,33.14a3.16,3.16,0,0,1,1.17.22,2.69,2.69,0,0,1,.93.61,2.74,2.74,0,0,1,.62,1,4,4,0,0,1,.22,1.35.87.87,0,0,1-.06.39.3.3,0,0,1-.24.1h-4.72a4,4,0,0,0,.18,1.16,2.36,2.36,0,0,0,.46.83,1.81,1.81,0,0,0,.7.5,2.42,2.42,0,0,0,.91.17,2.78,2.78,0,0,0,.81-.11,4.23,4.23,0,0,0,.59-.24l.41-.23a.53.53,0,0,1,.28-.11.29.29,0,0,1,.24.12l.35.45a2.41,2.41,0,0,1-.56.49,3.17,3.17,0,0,1-.69.34,4.45,4.45,0,0,1-.76.2,5.12,5.12,0,0,1-.77.07,3.78,3.78,0,0,1-1.36-.25,3,3,0,0,1-1.07-.73,3.41,3.41,0,0,1-.7-1.19,4.75,4.75,0,0,1-.25-1.62,4.18,4.18,0,0,1,.22-1.39,3.24,3.24,0,0,1,.66-1.11,2.93,2.93,0,0,1,1-.75A3.41,3.41,0,0,1,138.72,33.14Zm0,.92a2,2,0,0,0-1.43.52,2.53,2.53,0,0,0-.64,1.45h3.86a2.53,2.53,0,0,0-.12-.8,1.88,1.88,0,0,0-.35-.62,1.66,1.66,0,0,0-.56-.41A2.06,2.06,0,0,0,138.75,34.06Z"/></g></g><rect class="cls-1" y="0.04" width="170" height="43.92"/></svg>