<svg id="Layer_1" data-name="Layer 1" xmlns="http://www.w3.org/2000/svg" xmlns:xlink="http://www.w3.org/1999/xlink" viewBox="0 0 32 32"><defs><style>.cls-1{fill:none;}.cls-2{clip-path:url(#clip-path);}.cls-3{fill:#fff;}</style><clipPath id="clip-path"><rect class="cls-1" x="7.28" y="3" width="17.44" height="26"/></clipPath></defs><title>footer_pepper</title><rect class="cls-1" width="32" height="32"/><g class="cls-2"><g id="Grupo_39" data-name="Grupo 39"><path id="Trazado_64" data-name="Trazado 64" class="cls-3" d="M12.29,25.06v3.26a1,1,0,0,1-.06.42.39.39,0,0,1-.35.26,5,5,0,0,1-2.75-.62,3.77,3.77,0,0,1-1.77-2.8,6.55,6.55,0,0,1-.05-1.17V15.65a1.65,1.65,0,0,1,1.2-1.71,2.78,2.78,0,0,1,2.92.61,6.3,6.3,0,0,1,1.14,1.38,3.24,3.24,0,0,0,3.26,1.42,4.48,4.48,0,0,0,2-.56,3.63,3.63,0,0,0,1.7-2.26,6.35,6.35,0,0,0-.43-4.76,3.91,3.91,0,0,0-3.52-2.19,3.41,3.41,0,0,0-2.13.54,4,4,0,0,0-.93,1A5.8,5.8,0,0,1,11,10.73,2.37,2.37,0,0,1,7.35,8.22,5.45,5.45,0,0,1,8.7,5.78a8.29,8.29,0,0,1,5.18-2.64,11.83,11.83,0,0,1,5.32.39A7.33,7.33,0,0,1,24,8.2a12.11,12.11,0,0,1,.69,3.68A12.67,12.67,0,0,1,24.25,16a8.35,8.35,0,0,1-1.83,3.37,7.75,7.75,0,0,1-4.15,2.31A11.89,11.89,0,0,1,15,22a7.65,7.65,0,0,1-2.54-.46c-.19-.08-.18.05-.18.16v3.39"/></g></g></svg>