<svg id="Layer_1" data-name="Layer 1" xmlns="http://www.w3.org/2000/svg" viewBox="0 0 32 32"><defs><style>.cls-1{fill:none;}.cls-2{fill:#fff;}</style></defs><title>footer_youtube</title><rect class="cls-1" width="32" height="32"/><g id="footer-youtube"><path id="Trazado_23" data-name="Trazado 23" class="cls-2" d="M28.5,12.74A5.49,5.49,0,0,0,23,7.25H9A5.49,5.49,0,0,0,3.5,12.74v6.52A5.49,5.49,0,0,0,9,24.75H23a5.49,5.49,0,0,0,5.49-5.49Zm-8.25,3.75L14,19.6c-.25.14-1.09,0-1.09-.32V12.89c0-.29.85-.46,1.09-.32l6,3.27c.25.15.51.51.26.65"/></g></svg>