<svg id="Layer_1" data-name="Layer 1" xmlns="http://www.w3.org/2000/svg" xmlns:xlink="http://www.w3.org/1999/xlink" viewBox="0 0 32 32"><defs><style>.cls-1{fill:none;}.cls-2{fill:#fff;}.cls-3{clip-path:url(#clip-path);}</style><clipPath id="clip-path"><rect class="cls-1" x="6.49" y="2" width="19.03" height="28"/></clipPath></defs><title>footer_giftcard</title><rect class="cls-1" width="32" height="32"/><path id="Trazado_49" data-name="Trazado 49" class="cls-2" d="M14.43,19.64,14,18.91l-1,.17,1.26-2.22H11.83V22.7H16V16.86Z"/><g id="Grupo_32" data-name="Grupo 32"><g class="cls-3"><g id="Grupo_31" data-name="Grupo 31"><path id="Trazado_50" data-name="Trazado 50" class="cls-2" d="M21.3,14.2H18.55A3.7,3.7,0,0,0,19,14a1.56,1.56,0,0,0,.74-1.23,1.61,1.61,0,0,0-.42-1.08,1.35,1.35,0,0,0-.93-.34,1.79,1.79,0,0,0-1,.32,4.05,4.05,0,0,0-1.06,1.44l0,.08c-.1-.26-.2-.51-.32-.75a3,3,0,0,0-.78-.77,1.76,1.76,0,0,0-1-.32,1.45,1.45,0,0,0-1,.39,1.81,1.81,0,0,0-.43,1.16,1.25,1.25,0,0,0,.2.67,2,2,0,0,0,.81.68H11.22v2.29H16V14.2h.58v2.29h4.76Zm-7.39-.71a1.27,1.27,0,0,1-.38-.35.84.84,0,0,1,.13-.93.73.73,0,0,1,.48-.21h0a1.19,1.19,0,0,1,.63.21,3.32,3.32,0,0,1,.81,1.18,2.75,2.75,0,0,1,.25.64,4.61,4.61,0,0,1-1.92-.54m3.25-.5a3.72,3.72,0,0,1,.59-.78,1.16,1.16,0,0,1,.63-.21h0a.71.71,0,0,1,.46.17.6.6,0,0,1,.18.42,1.05,1.05,0,0,1-.46.79,4.84,4.84,0,0,1-1.89.69A3.3,3.3,0,0,1,17.16,13"/><path id="Trazado_51" data-name="Trazado 51" class="cls-2" d="M19.44,19.13l-1-.16L18,19.7,16.5,17v5.72h4.12V17H18.19Z"/><path id="Trazado_52" data-name="Trazado 52" class="cls-2" d="M23.33,4.07a.1.1,0,0,1,.1.09h0V27.84a.11.11,0,0,1-.1.09H8.67a.1.1,0,0,1-.1-.09V4.16a.09.09,0,0,1,.1-.09Zm0-1.38H8.67A1.48,1.48,0,0,0,7.18,4.16h0V27.84a1.48,1.48,0,0,0,1.49,1.47H23.33a1.48,1.48,0,0,0,1.49-1.47h0V4.16a1.48,1.48,0,0,0-1.49-1.47h0"/><path id="Trazado_53" data-name="Trazado 53" class="cls-2" d="M19.38,8.36H12.62a1,1,0,0,1,0-2H15a1,1,0,0,1,2,0h2.36a1,1,0,0,1,1,1,1,1,0,0,1-1,1h0"/></g></g></g></svg>