<?xml version="1.0" encoding="UTF-8"?><svg xmlns="http://www.w3.org/2000/svg" xmlns:xlink="http://www.w3.org/1999/xlink" viewBox="0 0 988.26 988.26"><defs><style>.e{fill:#fff;}.f{isolation:isolate;}.g{fill:#ffd8c7;}.h{opacity:.1;}.h,.i{mix-blend-mode:multiply;}.j{fill:url(#d);}.i{opacity:.04;}</style><linearGradient id="d" x1="605.8" y1="859.21" x2="420.91" y2="254.76" gradientTransform="matrix(1, 0, 0, 1, 0, 0)" gradientUnits="userSpaceOnUse"><stop offset="0" stop-color="#ae2080"/><stop offset="1" stop-color="#e5008c"/></linearGradient></defs><g class="f"><g id="a"/><g id="b"><g id="c"><g><circle class="j" cx="494.13" cy="494.13" r="494.13"/><g><path class="g" d="M383.34,468.02c-.91-.69-2.16,.17-1.86,1.27,21.87,78.3,12.9,169.74,9.69,216.96-1.18,17.41-19.13,43.27-22.33,47.77-.29,.41-.3,.96-.01,1.37,9.83,13.64,39.32,16.42,55.19,21.72,32.3,10.78,52.48,25.58,106.47,14.39,40.17-8.33,64.79-34.58,67.45-49.36,1.68-9.36-24.49-36.97-27.14-46.1-6.62-22.81-12.88-48.55-8.36-71.88,.09-.44-.08-.9-.44-1.17l-178.65-134.99Z"/><g class="h"><path d="M505.55,657.8c.06,.05,.12,.09,.19,.12,18.07,9.56,37.37,17.01,57.77,22.11,2.57,.6,5.18,1.14,7.83,1.61,.99,.17,1.72-.9,1.22-1.77-.85-1.48-1.46-2.77-1.77-3.82-6.62-22.81-12.88-48.56-8.36-71.88,.09-.44-.08-.89-.44-1.16l-143.28-110.23c-.74-.57-1.82-.11-1.92,.81-7.34,68.5,35.64,122.78,88.75,164.21Z"/></g><path class="g" d="M671.95,206.32c.06,.11,.1,.22,.13,.34,20.23,93.15,19.34,176.11,9.77,279.14-2.42,26.06-30.68,144.9-83.84,151.57-72.59,9.1-162.27-19.04-232.49-128.62-34.06-53.15-49.51-74.5-60.7-136.63-4.3-23.88-6.37-48.31-3.87-72.44,6.44-62.27,55.91-86.95,107.56-122.32,51.65-35.37,99.07-34.38,160-20,85.11,20.09,102.09,46.61,103.44,48.95Z"/><path class="i" d="M370.65,586.85c-.67-2.78-1.39-5.72-2.15-8.78-.04,.26-.07,.53-.11,.8-.02,.17-.01,.34,.04,.51,.77,2.48,1.52,4.97,2.22,7.48Z"/><g><path class="e" d="M366.92,134.13c-2.2-3.46-4.4-6.91-6.6-10.37,2.01,3.45,4.19,7.01,6.6,10.37Z"/><path class="e" d="M724.24,285.34c-8.8-24.27-12.88-50.21-23.67-73.67-14.23-30.93-40.27-56.2-71.48-69.76-.03-.01-.05-.02-.08-.04-20.16-11.12-42.85-18.37-65.55-22.19-49.3-8.29-101.65-2.14-145.66,21.58-8.71,4.69-17.87,10.23-27.71,9.22-5.31-.54-9.9-2.85-13.94-6.16-1.04-.85-2.47,.42-1.75,1.56l7.98,12.55c.65,1.03-.47,2.24-1.55,1.69-18.76-9.63-43.12-7.51-59.88,5.3-.95,.73-.37,2.24,.83,2.13,16.79-1.52,33.98,1.57,49.18,8.84,.99,.47,.87,1.91-.17,2.22-34.66,10.11-61.52,40.27-73.45,74.47-7.04,20.18-9.41,41.55-8.54,62.94,0,.09,0,.19-.02,.28-3.27,15.96-7.01,31.78-12.7,46.73-4.37,11.48-10.38,23.02-20.38,30.02-.67,.47-.65,1.48,.03,1.95,8.61,6,19.78,8.22,30.03,5.94,.76-.17,1.46,.45,1.43,1.23-.2,4.39-1.65,8.73-4.11,12.37-.66,.98,.4,2.22,1.48,1.74,1.19-.52,2.3-1.2,3.31-2.01,.79-.63,1.96-.02,1.92,1-.39,9.66-2.68,19.25-6.69,28.05-.52,1.15,.89,2.22,1.85,1.4,6.74-5.73,12.07-12.95,16.1-20.93,.53-1.04,2.08-.8,2.24,.36,1.54,11.06,2.81,22.15,3.55,33.29,0,.14,0,.28-.04,.41-.95,3.45-2.16,6.86-3.69,10.19-.47,1.04,.63,2.09,1.63,1.55,.29-.16,.58-.32,.87-.48l1.79,1.03c-.02,2.02-.11,4.21-.16,2.79-.02-.72,2.59-5.42,3-6.81,.07-.23,.21-.42,.39-.57,1.91-1.65,3.63-3.53,5.1-5.58,.59-.82,1.84-.62,2.12,.36,5.29,18.83,12.44,37.14,21.35,54.56,2.89,5.66,5.97,11.21,9.22,16.67,.99,1.66,4.65,5.27,3.66,3.6-.18-.3-1.22-4.75-1.57-5.87-.05-.17-.07-.35-.05-.52,1.17-8.43,1.04-17.04-.41-25.42-.22-1.27,1.45-1.94,2.16-.87,12.94,19.73,22.19,41.88,27.11,64.96,.18,.83,1.13,1.21,1.83,.74,13.89-9.18,14.15-23.95,11.19-41.67-7.43-44.58-18.82-83.08-10.05-127.43,2.96-14.95-17.73-42.14-8.51-53.15,.57-.68,1.64-.55,2.01,.26,12.21,26.95,36.79,47.98,65.25,56.02,1.2,.34,2.03-1.18,1.11-2.02-13.22-12.13-24.06-26.8-32-42.9-.54-1.1,.72-2.19,1.74-1.51,3.85,2.55,7.91,4.75,12.01,6.6,18.97,8.57,40.66,11.39,61.38,9.46,.13-.01,.25,0,.37,.03,10.02,2.45,20.14,4.52,30.31,6.13,16.92,2.68,31.13,2.74,48.25,1.91,1.92-.09,4.87-1.82,2.94-1.73-24.61,1.19-49.17-2.06-73.17-7.45,.77-.12,1.54-.25,2.3-.39,.15-.03,.31-.02,.46,.01,19.3,4.55,39.38,5.65,59.03,2.73,1.12-.17,1.41-1.65,.43-2.21-7.08-4.05-14.15-8.09-21.23-12.14-1.17-.67-.49-2.48,.83-2.2s2.76,.59,4.14,.91c.17,.07,.35,.12,.54,.12,40.6,9.3,78.99,28.19,111.07,54.77,.39,.32,.54,.86,.37,1.33-1.15,3.18-2.48,6.3-3.98,9.34-.85,1.72,.46,1.91,1.31,.17,6.11-12.32,10.71-24.55,11.24-38.29,.3-7.86-.32-15.77-1.83-23.5-.25-1.26,1.4-1.96,2.13-.91,4,5.68,7.99,11.37,11.99,17.05,.6,.85,1.95,.58,2.14-.45,3.53-18.21,3.53-37.09,0-55.29,1.68,8.39,3.37,16.78,5.05,25.18,.01,.06,.02,.12,.02,.18,.84,14.72-2.31,29.67-9.15,42.78-2.88,5.52-6.39,10.68-10.5,15.35-1.27,1.44,1.26,.39,2.54-1.07,12.14-13.8,18.86-28.52,20.08-46.79,0-.12,.04-.24,.08-.35,3.42-8.31,5.97-16.98,7.59-25.82,.25-1.35,2.21-1.27,2.34,.1,1.55,16.06,4.16,32.01,7.8,47.73,.32,1.4,2.38,1.14,2.35-.29-.56-24.11,1.09-48.26,1.5-72.4,.02-1.11,1.39-1.58,2.1-.73,14.69,17.8,31.5,33.85,50.06,47.57,1.05,.78,2.41-.47,1.73-1.58-13.01-21.28-25.79-42.84-34.28-66.27Zm-419.2,129.18c.07-.18,.13-.36,.2-.55,.41-1.16,2.1-1.01,2.3,.21,.78,4.71,1.37,9.4,1.7,14.05,.11,1.53-2.16,1.75-2.36,.23-.59-4.46-1.23-8.92-1.89-13.37-.03-.19,0-.39,.06-.57Zm33.22,91.71c-2.72-5.7-5.25-11.49-7.6-17.35,22.13-9.36-19.92,8.43,2.21-.93,2.61,5.73,5.13,11.5,7.57,17.3,.6,1.42-1.51,2.38-2.18,.98Zm122.28-137.46c-19.46-1.93-39.77-8.21-54.67-21.35-.15-.13-.26-.29-.33-.47-2.78-6.9-5.04-14-6.76-21.22-.3-1.28,1.39-2.06,2.13-.97,2.02,2.96,4.24,5.79,6.64,8.46,8.35,9.29,18.77,16.54,29.89,22.14,11.22,5.65,23.17,9.75,35.26,13.12,1.07,.3,2.14,.58,3.22,.87-5.13,.11-10.27-.07-15.38-.58Zm25.45-.01c-.14,.01-.28,0-.42-.03-2.36-.58-4.71-1.17-7.05-1.79-23.47-6.15-47.65-14.78-65.3-32.13-7.39-7.26-13.25-15.91-17.3-25.38-.05-.11-.08-.23-.09-.35-.21-1.82-.39-3.64-.54-5.47-.1-1.21,1.49-1.76,2.17-.75,21.42,31.82,54.88,54.99,91.78,65.52-1.08,.14-2.17,.27-3.25,.38Zm169.74-6.8c2.56,13.07,2.48,26.7-.35,39.72-.82,3.78-1.87,7.5-3.15,11.14,5.58-32.69-2.2-67.47-21.18-94.66l20.62,29.33c.06,.09,.12,.19,.15,.29,1.66,4.61,2.96,9.36,3.91,14.19Z"/></g></g><path class="e" d="M579.4,690.39c29.44,51.04-95.06,83.78-163.37,22.79-.03-.03-.07-.06-.1-.1l-27.85-30.52c-.29-.31-.71-.46-1.13-.37-45.05,9.64-124.93,86.37-147.78,125.83-14.19,24.51-22.78,58.8-26.82,91.28-.06,.44,.14,.88,.51,1.13,79.83,55.37,176.76,87.81,281.27,87.81,91.97,0,178.06-25.13,251.81-68.89,.47-.28,.69-.84,.54-1.37-18.91-62.72-62.3-160.78-87.41-185.52-14.15-13.94-64.19-37.38-78.14-43.76-1.05-.48-2.09,.67-1.51,1.67Z"/></g></g></g></g></svg>