<?xml version="1.0" encoding="UTF-8"?>
<svg id="Capa_1" data-name="Capa 1" xmlns="http://www.w3.org/2000/svg" viewBox="0 0 30 30">
  <defs>
    <style>
      .cls-1 {
        fill: #57595c;
        stroke-width: 0px;
      }
    </style>
  </defs>
  <path class="cls-1" d="m15,.71C9.64.71,5.6,5.86,5.6,10.27c0,2.51,1.21,4.23,2.38,5.9,1.11,1.58,2.18,3.08,2.33,5.21,0,.03,0,2.23,0,2.23,0,0,1.49.72,4.94.72-1.56,1.04-4.94.78-4.94.78v.96c0,.59.53,1.07,1.18,1.07,0,1.18,1.58,2.14,3.53,2.14s3.53-.96,3.53-2.14c.65,0,1.18-.48,1.18-1.07,0,0,0-4.67,0-4.69.15-2.13,1.21-3.63,2.33-5.21,1.17-1.67,2.38-3.39,2.38-5.9C24.4,5.86,20.36.71,15,.71Zm-.91,4.62c0-.5.41-.91.91-.91s.91.41.91.91v4.71c0,.5-.41.92-.91.92s-.91-.41-.91-.92v-4.71Zm.91,10.34c-3.1,0-5.63-2.53-5.63-5.63,0-1.77.81-3.4,2.22-4.47.16-.12.35-.19.55-.19.29,0,.55.13.73.36.31.4.23.98-.17,1.28-.95.73-1.5,1.83-1.5,3.02,0,2.1,1.7,3.8,3.8,3.8s3.8-1.7,3.8-3.8c0-1.19-.55-2.29-1.5-3.02-.19-.15-.32-.36-.35-.6-.03-.24.03-.48.18-.68.17-.23.44-.36.73-.36.2,0,.39.07.55.19,1.41,1.08,2.22,2.71,2.22,4.47,0,3.1-2.52,5.63-5.63,5.63Z"/>
</svg>