<svg id="Capa_1" data-name="Capa 1" xmlns="http://www.w3.org/2000/svg" viewBox="0 0 29 30"><defs><style>.cls-1{fill:#55595c;}</style></defs><title>icono-peluches</title><path class="cls-1" d="M20.69,13.49H16.05c-.3,0-.41.08-.4.39q0,1.65,0,3.3a.38.38,0,0,0,.3.44,1,1,0,0,1,.71,1.09c-.08.7.24,1,.8,1.35A4.38,4.38,0,0,1,19.73,23a4.92,4.92,0,0,1-.26,2.58,9.71,9.71,0,0,1-1.77,3.13.56.56,0,0,1-.47.22H11.89a.54.54,0,0,1-.46-.22,9.3,9.3,0,0,1-2-4.46,3.84,3.84,0,0,1,1.34-3.49,6.14,6.14,0,0,1,1.51-1,.39.39,0,0,0,.26-.42,5.14,5.14,0,0,1,0-.68,1,1,0,0,1,.75-1c.19-.06.27-.13.27-.34,0-1.16,0-2.31,0-3.46,0-.22-.08-.3-.3-.3H7.46c-.24,0-.3.1-.3.32V20a.39.39,0,0,0,.23.4,1,1,0,0,1,.46,1.32,1.08,1.08,0,0,1-1.25.6,1,1,0,0,1-.76-1.15,1,1,0,0,1,.55-.78A.36.36,0,0,0,6.61,20q0-3.11,0-6.21c0-.24-.09-.31-.32-.31H3.67c-.11,0-.26.06-.32-.06s0-.19.11-.28L10.3,2.36c.21-.33.43-.66.63-1a.48.48,0,0,1,.44-.25h6.5a.46.46,0,0,1,.44.29L24.24,11l1.29,2.1c.06.1.18.2.12.31s-.23.06-.35.06Z"/></svg>