<svg xmlns="http://www.w3.org/2000/svg" viewBox="0 0 128 128"><defs><style>.cls-1{fill:#585858;}</style></defs><title>iconos-pcgaming</title><g id="Capa_2" data-name="Capa 2"><path class="cls-1" d="M64,5.89A58.11,58.11,0,1,0,122.11,64,58.1,58.1,0,0,0,64,5.89Zm0,14.52a43.53,43.53,0,0,1,40.91,29.07H23.09A43.52,43.52,0,0,1,64,20.41Zm0,50.84A7.26,7.26,0,1,1,71.25,64,7.25,7.25,0,0,1,64,71.25ZM20.41,64c19.84,0,35.93,19.12,36.27,42.84A43.59,43.59,0,0,1,20.41,64Zm50.91,42.84C71.66,83.12,87.72,64,107.57,64a43.57,43.57,0,0,1-36.24,42.84Zm0,0"/></g></svg>